<svg width="46" height="55" viewBox="0 0 46 55" fill="none" xmlns="http://www.w3.org/2000/svg">
<path d="M5.79999 1H4.79999V2V52.4V53.4H5.79999H43.4H44.4V52.4V10.4V9.98579L44.1071 9.69289L39.7463 5.33205L36.5809 1.3753L36.2806 1H35.8H5.79999Z" stroke="black" stroke-width="2"/>
<path d="M36.5415 1.32909C36.2641 1.02241 35.8264 0.918176 35.4405 1.06685C35.0546 1.21553 34.8 1.58643 34.8 2V10.4C34.8 10.9523 35.2477 11.4 35.8 11.4H43.4C43.7954 11.4 44.1536 11.167 44.314 10.8056C44.4744 10.4442 44.4068 10.0223 44.1415 9.72909L36.5415 1.32909Z" fill="#EFA036" stroke="black" stroke-width="2" stroke-linejoin="round"/>
<rect x="0.200012" y="34" width="30.4" height="11.2" fill="#EFA036"/>
<path d="M16.1687 43.6001L15.5863 41.6625H12.6631L12.0807 43.6001H11.0055L13.4807 35.8833H14.8247L17.2887 43.6001H16.1687ZM12.9207 40.8001H15.3287L14.1303 36.7681L12.9207 40.8001Z" fill="white"/>
<path d="M19.5426 35.8833V43.6001H18.4786V35.8833H19.5426Z" fill="white"/>
<path d="M24.8762 28.4001L24.0506 25.3281H19.6538L18.8282 28.4001H16.1978L20.3258 15.1329H23.4554L27.5642 28.4001H24.8762ZM20.153 23.4081H23.5322L21.8426 17.0721L20.153 23.4081Z" fill="#333333"/>
<path d="M31.4235 18.2433V28.4001H28.9659V18.2433H31.4235ZM30.1755 13.0977C30.6363 13.0977 31.0075 13.2449 31.2891 13.5393C31.5835 13.8209 31.7307 14.1729 31.7307 14.5953C31.7307 15.0177 31.5835 15.3697 31.2891 15.6513C31.0075 15.9329 30.6363 16.0737 30.1755 16.0737C29.7275 16.0737 29.3563 15.9329 29.0619 15.6513C28.7803 15.3697 28.6395 15.0177 28.6395 14.5953C28.6395 14.1729 28.7803 13.8209 29.0619 13.5393C29.3563 13.2449 29.7275 13.0977 30.1755 13.0977Z" fill="#333333"/>
</svg>
