<svg width="46" height="55" viewBox="0 0 46 55" fill="none" xmlns="http://www.w3.org/2000/svg">
<path d="M6 1H5V2V52.4V53.4H6H43.6H44.6V52.4V10.4V9.98579L44.3071 9.69289L39.9463 5.33205L36.7809 1.3753L36.4806 1H36H6Z" stroke="black" stroke-width="2"/>
<path d="M36.7415 1.32909C36.4641 1.02241 36.0264 0.918176 35.6405 1.06685C35.2546 1.21553 35 1.58643 35 2V10.4C35 10.9523 35.4477 11.4 36 11.4H43.6C43.9954 11.4 44.3536 11.167 44.514 10.8056C44.6744 10.4442 44.6068 10.0223 44.3415 9.72909L36.7415 1.32909Z" fill="#4EA418" stroke="black" stroke-width="2" stroke-linejoin="round"/>
<rect x="0.400024" y="34" width="30.4" height="11.2" fill="#4EA418"/>
<path d="M9.29109 35.7488C9.75402 35.7488 10.1423 35.8085 10.4559 35.928C10.777 36.0474 11.1018 36.2416 11.4303 36.5104L10.8479 37.1936C10.3775 36.8128 9.88096 36.6224 9.35829 36.6224C8.71616 36.6224 8.19722 36.8688 7.80149 37.3616C7.41322 37.8544 7.21909 38.6458 7.21909 39.736C7.21909 40.7962 7.41322 41.5802 7.80149 42.088C8.18976 42.5882 8.70496 42.8384 9.34709 42.8384C9.67562 42.8384 9.96309 42.7824 10.2095 42.6704C10.4559 42.5584 10.7172 42.4016 10.9935 42.2L11.5199 42.872C11.281 43.1184 10.9748 43.3237 10.6015 43.488C10.2282 43.6522 9.79882 43.7344 9.31349 43.7344C8.68629 43.7344 8.12629 43.5813 7.63349 43.2752C7.14816 42.9616 6.76736 42.5061 6.49109 41.9088C6.22229 41.304 6.08789 40.5797 6.08789 39.736C6.08789 38.8922 6.22976 38.1717 6.51349 37.5744C6.79722 36.9696 7.18176 36.5141 7.66709 36.208C8.15242 35.9018 8.69376 35.7488 9.29109 35.7488Z" fill="white"/>
<path d="M14.4719 35.8832C15.6367 35.8832 16.57 36.1557 17.2719 36.7008C17.9812 37.2384 18.3359 38.2389 18.3359 39.7024C18.3359 41.1285 17.9812 42.1365 17.2719 42.7264C16.57 43.3088 15.7151 43.6 14.7071 43.6H12.8591V35.8832H14.4719ZM13.9231 36.7344V42.76H14.7855C15.5023 42.76 16.0847 42.5397 16.5327 42.0992C16.9807 41.6586 17.2047 40.8597 17.2047 39.7024C17.2047 38.8885 17.0889 38.265 16.8575 37.832C16.626 37.3914 16.3311 37.1002 15.9727 36.9584C15.6143 36.809 15.1924 36.7344 14.7071 36.7344H13.9231Z" fill="white"/>
<path d="M22.3293 40.3296H21.1309V43.6H20.0669V35.8832H22.0941C23.0573 35.8832 23.7853 36.0661 24.2781 36.432C24.7784 36.7978 25.0285 37.3429 25.0285 38.0672C25.0285 38.6048 24.8904 39.0416 24.6141 39.3776C24.3378 39.7136 23.9197 39.9674 23.3597 40.1392L25.4429 43.6H24.1773L22.3293 40.3296ZM22.2061 39.512C22.7661 39.512 23.188 39.4 23.4717 39.176C23.7554 38.9445 23.8973 38.5749 23.8973 38.0672C23.8973 37.5893 23.7517 37.2458 23.4605 37.0368C23.1768 36.8202 22.7176 36.712 22.0829 36.712H21.1309V39.512H22.2061Z" fill="white"/>
<path d="M14.251 14.4224C14.6542 14.4224 15.0062 14.48 15.307 14.5952C15.6078 14.7104 15.9022 14.8864 16.1902 15.1232L15.547 15.872C15.1566 15.5584 14.747 15.4016 14.3182 15.4016C13.8254 15.4016 13.4286 15.6 13.1278 15.9968C12.8334 16.3936 12.6862 17.0176 12.6862 17.8688C12.6862 18.7008 12.8334 19.3184 13.1278 19.7216C13.4222 20.1248 13.819 20.3264 14.3182 20.3264C14.5806 20.3264 14.8142 20.2816 15.019 20.192C15.2238 20.096 15.4414 19.9616 15.6718 19.7888L16.267 20.5376C16.043 20.768 15.7582 20.96 15.4126 21.1136C15.0734 21.2672 14.6926 21.344 14.2702 21.344C13.6942 21.344 13.1854 21.2096 12.7438 20.9408C12.3022 20.672 11.9598 20.2784 11.7166 19.76C11.4734 19.2352 11.3518 18.6048 11.3518 17.8688C11.3518 17.1456 11.4766 16.5248 11.7262 16.0064C11.9822 15.488 12.3278 15.0944 12.763 14.8256C13.2046 14.5568 13.7006 14.4224 14.251 14.4224Z" fill="#333333"/>
<path d="M19.5294 14.4224C20.1246 14.4224 20.6398 14.5568 21.075 14.8256C21.5102 15.0944 21.843 15.488 22.0734 16.0064C22.3102 16.5248 22.4286 17.1488 22.4286 17.8784C22.4286 18.6016 22.3102 19.2224 22.0734 19.7408C21.8366 20.2592 21.5006 20.656 21.0654 20.9312C20.6302 21.2064 20.1182 21.344 19.5294 21.344C18.9342 21.344 18.419 21.2096 17.9838 20.9408C17.5486 20.672 17.2126 20.2784 16.9758 19.76C16.739 19.2416 16.6206 18.6176 16.6206 17.888C16.6206 17.1712 16.739 16.5536 16.9758 16.0352C17.2126 15.5104 17.5486 15.1104 17.9838 14.8352C18.4254 14.56 18.9406 14.4224 19.5294 14.4224ZM19.5294 15.392C19.0174 15.392 18.627 15.5936 18.3582 15.9968C18.0894 16.3936 17.955 17.024 17.955 17.888C17.955 19.5456 18.4798 20.3744 19.5294 20.3744C20.0414 20.3744 20.4286 20.176 20.691 19.7792C20.9598 19.3824 21.0942 18.7488 21.0942 17.8784C21.0942 17.0144 20.9598 16.384 20.691 15.9872C20.4286 15.5904 20.0414 15.392 19.5294 15.392Z" fill="#333333"/>
<path d="M25.6965 18.5408H24.8901V21.2H23.6229V14.5664H25.6005C27.3541 14.5664 28.2309 15.216 28.2309 16.5152C28.2309 16.9568 28.1221 17.3216 27.9045 17.6096C27.6869 17.8976 27.3477 18.1312 26.8869 18.3104L28.6245 21.2H27.1653L25.6965 18.5408ZM24.8901 17.6288H25.6773C26.0805 17.6288 26.3845 17.5424 26.5893 17.3696C26.8005 17.1904 26.9061 16.9056 26.9061 16.5152C26.9061 16.1568 26.7973 15.8976 26.5797 15.7376C26.3685 15.5712 26.0325 15.488 25.5717 15.488H24.8901V17.6288Z" fill="#333333"/>
<path d="M33.3412 14.5664L33.2068 15.5072H30.7588V17.36H32.89V18.3008H30.7588V20.2496H33.3796V21.2H29.4916V14.5664H33.3412Z" fill="#333333"/>
<path d="M35.8494 14.5664V20.1632H38.5086L38.3646 21.2H34.5822V14.5664H35.8494Z" fill="#333333"/>
<path d="M14.347 23.3664C15.3774 23.3664 16.1998 23.6 16.8142 24.0672C17.435 24.5344 17.7454 25.3952 17.7454 26.6496C17.7454 27.8784 17.4414 28.7456 16.8334 29.2512C16.2254 29.7504 15.4542 30 14.5198 30H12.715V23.3664H14.347ZM13.9822 24.3168V29.0496H14.6062C15.1694 29.0496 15.611 28.8768 15.931 28.5312C16.251 28.1792 16.411 27.552 16.411 26.6496C16.411 26.0224 16.3278 25.5392 16.1614 25.2C16.0014 24.8544 15.787 24.6208 15.5182 24.4992C15.2558 24.3776 14.939 24.3168 14.5678 24.3168H13.9822Z" fill="#333333"/>
<path d="M21.0136 27.3408H20.2072V30H18.94V23.3664H20.9176C22.6712 23.3664 23.548 24.016 23.548 25.3152C23.548 25.7568 23.4392 26.1216 23.2216 26.4096C23.004 26.6976 22.6648 26.9312 22.204 27.1104L23.9416 30H22.4824L21.0136 27.3408ZM20.2072 26.4288H20.9944C21.3976 26.4288 21.7016 26.3424 21.9064 26.1696C22.1176 25.9904 22.2232 25.7056 22.2232 25.3152C22.2232 24.9568 22.1144 24.6976 21.8968 24.5376C21.6856 24.3712 21.3496 24.288 20.8888 24.288H20.2072V26.4288Z" fill="#333333"/>
<path d="M28.3224 30L27.9096 28.464H25.7112L25.2984 30H23.9832L26.0472 23.3664H27.612L29.6664 30H28.3224ZM25.9608 27.504H27.6504L26.8056 24.336L25.9608 27.504Z" fill="#333333"/>
<path d="M37.5097 23.3664L36.2905 30H34.6393L33.6313 24.7104L32.5945 30H30.9913L29.7913 23.3664H31.0489L31.8937 28.992L32.9785 23.3664H34.3225L35.3881 28.992L36.3097 23.3664H37.5097Z" fill="#333333"/>
</svg>
