<svg width="46" height="55" viewBox="0 0 46 55" fill="none" xmlns="http://www.w3.org/2000/svg">
<path d="M6.19995 1H5.19995V2V52.4V53.4H6.19995H43.7999H44.7999V52.4V10.4V9.98579L44.5071 9.69289L40.1462 5.33205L36.9808 1.3753L36.6806 1H36.1999H6.19995Z" stroke="black" stroke-width="2"/>
<path d="M36.9415 1.32909C36.664 1.02241 36.2264 0.918176 35.8405 1.06685C35.4545 1.21553 35.2 1.58643 35.2 2V10.4C35.2 10.9523 35.6477 11.4 36.2 11.4H43.8C44.1953 11.4 44.5536 11.167 44.714 10.8056C44.8744 10.4442 44.8068 10.0223 44.5415 9.72909L36.9415 1.32909Z" fill="#DC1D00" stroke="black" stroke-width="2" stroke-linejoin="round"/>
<rect x="0.599976" y="34" width="30.4" height="11.2" fill="#DC1D00"/>
<path d="M9.73863 35.8833C10.6944 35.8833 11.4336 36.0849 11.9562 36.4881C12.4789 36.8838 12.7402 37.4774 12.7402 38.2689C12.7402 39.1126 12.4677 39.7398 11.9226 40.1505C11.3776 40.5612 10.6533 40.7665 9.74983 40.7665H8.77543V43.6001H7.71143V35.8833H9.73863ZM9.70503 39.9265C10.3248 39.9265 10.7952 39.807 11.1162 39.5681C11.4448 39.3292 11.609 38.8998 11.609 38.2801C11.609 37.7276 11.4448 37.3281 11.1162 37.0817C10.7952 36.8353 10.3322 36.7121 9.72743 36.7121H8.77543V39.9265H9.70503Z" fill="white"/>
<path d="M15.832 35.8833C16.9968 35.8833 17.9302 36.1558 18.632 36.7009C19.3414 37.2385 19.696 38.239 19.696 39.7025C19.696 41.1286 19.3414 42.1366 18.632 42.7265C17.9302 43.3089 17.0752 43.6001 16.0672 43.6001H14.2192V35.8833H15.832ZM15.2832 36.7345V42.7601H16.1456C16.8624 42.7601 17.4448 42.5398 17.8928 42.0993C18.3408 41.6588 18.5648 40.8598 18.5648 39.7025C18.5648 38.8886 18.4491 38.2652 18.2176 37.8321C17.9862 37.3916 17.6912 37.1004 17.3328 36.9585C16.9744 36.8092 16.5526 36.7345 16.0672 36.7345H15.2832Z" fill="white"/>
<path d="M21.4271 43.6001V35.8833H25.5263L25.4031 36.7345H22.4911V39.3665H25.0111V40.2065H22.4911V43.6001H21.4271Z" fill="white"/>
<path d="M30.9941 21.4879C30.9776 21.3247 30.8289 19.4317 27.4257 19.5133C24.0225 19.5948 23.1964 19.807 23.1964 19.807C23.1964 19.807 20.6523 17.2612 19.7272 15.2865C19.7272 15.2865 20.8506 12.0389 20.8011 9.99895C20.7515 7.95891 20.2558 6.78396 18.67 6.80022C17.0839 6.81655 16.8526 8.18741 17.0613 10.2281C17.2485 12.0589 18.2074 14.2093 18.2074 14.2093C18.2074 14.2093 17.475 16.4616 16.5057 18.7027C15.5365 20.944 14.8757 22.1191 14.8757 22.1191C14.8757 22.1191 11.5992 23.2015 10.1784 24.5072C8.75768 25.8126 8.18034 26.8158 8.92839 27.82C9.57268 28.685 11.8305 28.8808 13.846 26.2696C15.8615 23.6585 16.7701 22.0266 16.7701 22.0266C16.7701 22.0266 19.8461 21.1942 20.8027 20.9658C21.7592 20.7373 22.9156 20.5578 22.9156 20.5578C22.9156 20.5578 25.7241 23.3484 28.4335 23.2505C31.1428 23.1525 31.0107 21.6511 30.9941 21.4879ZM9.63329 27.3794C7.94814 26.3839 13.1687 23.3157 14.1102 23.2179C14.1102 23.2178 11.3973 28.4215 9.63329 27.3794ZM17.6457 9.47663C17.6457 7.86101 18.1743 7.42034 18.5873 7.42034C19.0003 7.42034 19.4629 7.61626 19.4795 9.01971C19.496 10.4232 18.5873 13.1649 18.5873 13.1649C18.2735 12.8385 17.6457 11.0923 17.6457 9.47663ZM19.8209 20.5414C18.1305 20.9494 17.2822 21.3738 17.2822 21.3738C17.2822 21.3738 17.2822 21.3738 17.9761 19.8396C18.67 18.3057 19.3802 16.2167 19.3802 16.2167C20.3385 17.9792 22.2384 20.0518 22.2384 20.0518C22.2384 20.0518 21.5114 20.1334 19.8209 20.5414ZM23.8848 20.3999C23.8848 20.3999 29.3806 19.4158 29.3806 21.2704C29.3806 23.125 25.9774 22.3692 23.8848 20.3999Z" fill="#DC1D00"/>
</svg>
