<svg width="46" height="55" viewBox="0 0 46 55" fill="none" xmlns="http://www.w3.org/2000/svg">
<path d="M5.59998 1H4.59998V2V52.4V53.4H5.59998H43.2H44.2V52.4V10.4V9.98579L43.9071 9.69289L39.5462 5.33205L36.3808 1.3753L36.0806 1H35.6H5.59998Z" stroke="black" stroke-width="2"/>
<path d="M36.3415 1.32909C36.064 1.02241 35.6264 0.918176 35.2405 1.06685C34.8546 1.21553 34.6 1.58643 34.6 2V10.4C34.6 10.9523 35.0477 11.4 35.6 11.4H43.2C43.5954 11.4 43.9536 11.167 44.114 10.8056C44.2744 10.4442 44.2068 10.0223 43.9415 9.72909L36.3415 1.32909Z" fill="#00A8CD" stroke="black" stroke-width="2" stroke-linejoin="round"/>
<rect y="34" width="30.4" height="11.2" fill="#00A8CD"/>
<path d="M10.3472 35.8832C11.3029 35.8832 12.0421 36.0848 12.5648 36.488C13.0875 36.8837 13.3488 37.4773 13.3488 38.2688C13.3488 39.1125 13.0763 39.7397 12.5312 40.1504C11.9861 40.561 11.2619 40.7664 10.3584 40.7664H9.38401V43.6H8.32001V35.8832H10.3472ZM10.3136 39.9264C10.9333 39.9264 11.4037 39.8069 11.7248 39.568C12.0533 39.329 12.2176 38.8997 12.2176 38.28C12.2176 37.7274 12.0533 37.328 11.7248 37.0816C11.4037 36.8352 10.9408 36.712 10.336 36.712H9.38401V39.9264H10.3136Z" fill="white"/>
<path d="M16.5131 35.7488C17.0283 35.7488 17.4688 35.8234 17.8347 35.9728C18.2005 36.1146 18.5552 36.3386 18.8987 36.6448L18.3163 37.2944C18.0251 37.0629 17.7376 36.8949 17.4539 36.7904C17.1776 36.6784 16.8789 36.6224 16.5579 36.6224C16.1547 36.6224 15.8224 36.7157 15.5611 36.9024C15.2997 37.089 15.1691 37.3616 15.1691 37.72C15.1691 37.944 15.2139 38.1344 15.3035 38.2912C15.3931 38.4405 15.5573 38.5786 15.7963 38.7056C16.0427 38.8325 16.3973 38.9669 16.8603 39.1088C17.3456 39.2581 17.7488 39.4186 18.0699 39.5904C18.3909 39.7621 18.6485 40.001 18.8427 40.3072C19.0443 40.6058 19.1451 40.9866 19.1451 41.4496C19.1451 41.8976 19.0331 42.2933 18.8091 42.6368C18.5925 42.9802 18.2752 43.249 17.8571 43.4432C17.4464 43.6373 16.9573 43.7344 16.3899 43.7344C15.3221 43.7344 14.4485 43.4021 13.7691 42.7376L14.3515 42.088C14.6651 42.3418 14.9824 42.536 15.3035 42.6704C15.6245 42.7973 15.9829 42.8608 16.3787 42.8608C16.8565 42.8608 17.2523 42.745 17.5659 42.5136C17.8795 42.2746 18.0363 41.9312 18.0363 41.4832C18.0363 41.2293 17.9877 41.0202 17.8907 40.856C17.7936 40.6842 17.6256 40.5312 17.3867 40.3968C17.1552 40.2624 16.8155 40.128 16.3675 39.9936C15.576 39.7546 14.9973 39.4672 14.6315 39.1312C14.2656 38.7952 14.0827 38.3397 14.0827 37.7648C14.0827 37.3765 14.1835 37.0293 14.3851 36.7232C14.5941 36.417 14.8816 36.1781 15.2475 36.0064C15.6208 35.8346 16.0427 35.7488 16.5131 35.7488Z" fill="white"/>
<path d="M22.325 35.8832C23.4898 35.8832 24.4231 36.1557 25.125 36.7008C25.8343 37.2384 26.189 38.2389 26.189 39.7024C26.189 41.1285 25.8343 42.1365 25.125 42.7264C24.4231 43.3088 23.5682 43.6 22.5602 43.6H20.7122V35.8832H22.325ZM21.7762 36.7344V42.76H22.6386C23.3554 42.76 23.9378 42.5397 24.3858 42.0992C24.8338 41.6586 25.0578 40.8597 25.0578 39.7024C25.0578 38.8885 24.9421 38.265 24.7106 37.832C24.4791 37.3914 24.1842 37.1002 23.8258 36.9584C23.4674 36.809 23.0455 36.7344 22.5602 36.7344H21.7762Z" fill="white"/>
<path d="M19.9251 15.1328C21.6275 15.1328 22.9459 15.4848 23.8803 16.1888C24.8275 16.8928 25.3011 17.9488 25.3011 19.3568C25.3011 20.8288 24.8275 21.936 23.8803 22.6784C22.9331 23.408 21.6723 23.7728 20.0979 23.7728H18.5427V28.4H16.0083V15.1328H19.9251ZM19.9059 21.872C20.8147 21.872 21.4995 21.6864 21.9603 21.3152C22.4211 20.9312 22.6515 20.2784 22.6515 19.3568C22.6515 17.7824 21.7363 16.9952 19.9059 16.9952H18.5427V21.872H19.9059Z" fill="#333333"/>
<path d="M29.9004 17.9552C31.27 17.9552 32.4732 18.3584 33.51 19.1648L32.55 20.6048C31.6796 20.0544 30.8284 19.7792 29.9964 19.7792C29.51 19.7792 29.1324 19.8752 28.8636 20.0672C28.5948 20.2464 28.4604 20.4896 28.4604 20.7968C28.4604 21.0272 28.518 21.2192 28.6332 21.3728C28.7484 21.5264 28.9532 21.6736 29.2476 21.8144C29.5548 21.9424 30.0028 22.0896 30.5916 22.256C31.6924 22.5504 32.5052 22.9408 33.03 23.4272C33.5676 23.9136 33.8364 24.592 33.8364 25.4624C33.8364 26.4736 33.4268 27.2672 32.6076 27.8432C31.7884 28.4064 30.7708 28.688 29.5548 28.688C28.7228 28.688 27.9612 28.56 27.27 28.304C26.5916 28.048 26.0028 27.696 25.5036 27.248L26.7324 25.8656C27.6156 26.5312 28.5372 26.864 29.4972 26.864C30.0476 26.864 30.4828 26.7552 30.8028 26.5376C31.1356 26.32 31.302 26.0192 31.302 25.6352C31.302 25.3408 31.238 25.1104 31.11 24.944C30.9948 24.7648 30.7772 24.6112 30.4572 24.4832C30.15 24.3424 29.6636 24.176 28.998 23.984C27.9612 23.7024 27.1996 23.312 26.7132 22.8128C26.2268 22.3008 25.9836 21.6672 25.9836 20.912C25.9836 20.3488 26.1436 19.8432 26.4636 19.3952C26.7964 18.9472 27.2572 18.5952 27.846 18.3392C28.4476 18.0832 29.1324 17.9552 29.9004 17.9552Z" fill="#333333"/>
</svg>
