<svg width="46" height="55" viewBox="0 0 46 55" fill="none" xmlns="http://www.w3.org/2000/svg">
<path d="M6.40009 1H5.40009V2V52.4V53.4H6.40009H44.0001H45.0001V52.4V10.4V9.98579L44.7072 9.69289L40.3463 5.33205L37.181 1.3753L36.8807 1H36.4001H6.40009Z" stroke="#333333" stroke-width="2"/>
<path d="M37.1416 1.32909C36.8642 1.02241 36.4265 0.918176 36.0406 1.06685C35.6547 1.21553 35.4001 1.58643 35.4001 2V10.4C35.4001 10.9523 35.8478 11.4 36.4001 11.4H44.0001C44.3955 11.4 44.7537 11.167 44.9141 10.8056C45.0745 10.4442 45.0069 10.0223 44.7416 9.72909L37.1416 1.32909Z" fill="#004788" stroke="#333333" stroke-width="2" stroke-linejoin="round"/>
<rect x="0.800049" y="34" width="30.4" height="11.2" fill="#004788"/>
<path d="M11.6324 35.8833L11.5204 36.7905H9.38121V43.6001H8.31721V36.7905H6.12201V35.8833H11.6324Z" fill="white"/>
<path d="M13.9239 35.8833V43.6001H12.8599V35.8833H13.9239Z" fill="white"/>
<path d="M16.1631 43.6001V35.8833H20.2623L20.1391 36.7345H17.2271V39.3665H19.7471V40.2065H17.2271V43.6001H16.1631Z" fill="white"/>
<path d="M21.6646 43.6001V35.8833H25.7638L25.6406 36.7345H22.7286V39.3665H25.2486V40.2065H22.7286V43.6001H21.6646Z" fill="white"/>
<path d="M31.0001 9.45523V9.45528V26.1436C31.0001 27.0548 30.259 27.7959 29.3474 27.7959H11.1894C10.2772 27.7959 9.53552 27.0542 9.53552 26.1436V9.45528C9.53552 8.54195 10.2783 7.80005 11.1894 7.80005H29.3475C30.258 7.80005 31.0001 8.54133 31.0001 9.45523Z" stroke="#333333" stroke-width="2"/>
<path d="M28.3284 26.5412H20.1278H12.2925C11.5886 26.5412 11.2751 26.0238 11.5924 25.3855L15.9665 16.5845C16.2834 15.9463 16.8875 15.8893 17.3152 16.4571L21.7135 22.2961C22.1413 22.8641 22.8889 22.9124 23.3838 22.4036L24.4598 21.2967C24.9542 20.7879 25.6828 20.8509 26.0863 21.4365L28.8725 25.4795C29.2753 26.066 29.0323 26.5412 28.3284 26.5412Z" fill="#004788"/>
<path d="M23.6198 10.6187C25.0081 10.6187 26.1339 11.8384 26.1339 13.3422C26.1339 14.846 25.008 16.0658 23.6198 16.0658C22.2312 16.0658 21.1058 14.846 21.1058 13.3422C21.1058 11.8384 22.2312 10.6187 23.6198 10.6187Z" fill="#004788"/>
</svg>
