<?xml version="1.0" encoding="utf-8"?>
<!-- Generator: Adobe Illustrator 22.0.1, SVG Export Plug-In . SVG Version: 6.00 Build 0)  -->
<svg version="1.2" baseProfile="tiny" xmlns="http://www.w3.org/2000/svg" xmlns:xlink="http://www.w3.org/1999/xlink" x="0px"
	 y="0px" viewBox="0 0 266.4 92.8" xml:space="preserve">
<g id="Слой_1">
	<rect x="23.6" y="-241.1" fill="#FFFFFF" width="87.9" height="63"/>
	<g>
		<path fill="#961406" d="M72.8-300.1v28.3l-7.2-2v-19.3l-5.8,1v16.5l-7.2-2.1v-16.4"/>
	</g>
	<g>
		<path fill="#D82615" d="M93.2-271.8h-7.2v-21.3h-5.8v21.3h-7.2v-28.3h7.2h13.1V-271.8z"/>
	</g>
	<circle fill="#D82615" cx="24.6" cy="-286" r="1.1"/>
	<circle fill="#D82615" cx="94.2" cy="-286" r="1.1"/>
	<g>
		<g>
			<path fill="#D82615" d="M42.9,0.2v92.7L64.8,81V23.1l11.7,4.4v47.1l9.8-5.4V23.9L42.9,0.2z"/>
		</g>
		<polygon fill="#961406" points="42.7,0.2 0.4,23.4 0.4,30.7 19.2,23.8 19.2,80 42.9,92.9 42.9,0.2 		"/>
	</g>
	<g>
		<path d="M118.7,33.4H114V19.7h-4.5v13.7h-4.7V15.2h4.7h9.1V33.4z"/>
		<path d="M132.8,29v4.4H123h-1.4V15.2h4.7h6.4v4.4h-6.4v2.6h5.8v4.1h-5.8V29H132.8z"/>
		<path d="M148.5,21.5c0,3.7-2.9,6.4-6.5,6.4h-2.4v5.5h-4.7V15.2h4.7h2.4C145.6,15.2,148.5,17.8,148.5,21.5z M143.8,21.5
			c0-1.1-0.8-1.9-1.8-1.9h-2.4v3.9h2.4C143,23.5,143.8,22.7,143.8,21.5z"/>
		<path d="M166.2,27.6c0,3.3-2.4,5.8-5.9,5.8h-9h-1V15.2h4.7h3.2c3.2,0,5.7,2,5.7,4.9c0,0.9-0.3,1.7-0.8,2.3
			C165,23.4,166.2,25.3,166.2,27.6z M154.9,19.4v2.4h3.8c0.3-0.3,0.5-0.7,0.5-1.1c0-0.7-0.5-1.3-1.2-1.3H154.9z M161.5,27.4
			c0-1.1-0.6-1.8-1.8-1.8h-4.7v3.6h4.7C160.9,29.2,161.5,28.4,161.5,27.4z"/>
		<path d="M168.1,15.2h4.7v5.5h2.4c3.6,0,6.5,2.7,6.5,6.4c0,3.7-2.9,6.4-6.5,6.4h-7.1V15.2z M175.2,29c1,0,1.8-0.8,1.8-2
			s-0.8-1.9-1.8-1.9h-2.4V29H175.2z M183.2,15.2h4.6v18.2h-4.6V15.2z"/>
		<path d="M200.3,24l-5.9,9.4h-3.6V15.2h4.7v9.4l5.9-9.4h3.6v18.2h-4.6V24z M193.9,10.1h8.4v3.6h-8.4V10.1z"/>
	</g>
	<g>
		<path d="M118.6,59.4H114V45.7h-4.5v13.7h-4.7V41.2h4.7h9.1V59.4z"/>
		<path d="M120.8,50.3c0-5.4,4.2-9.5,9.6-9.5c5.3,0,9.6,4.1,9.6,9.5c0,5.4-4.2,9.5-9.6,9.5C125,59.8,120.8,55.7,120.8,50.3z
			 M135.3,50.3c0-2.9-2.1-4.9-4.9-4.9c-2.8,0-4.9,2-4.9,4.9c0,2.9,2.1,4.9,4.9,4.9C133.1,55.2,135.3,53.2,135.3,50.3z"/>
		<path d="M141.3,50.3c0-5.4,4-9.5,9.5-9.5c4.5,0,8.3,3.1,9,7.4H155c-0.5-1.7-2.2-2.8-4.2-2.8c-2.9,0-4.9,2-4.9,4.9
			c0,2.9,1.9,4.9,4.9,4.9c2,0,3.7-1.1,4.2-2.8h4.8c-0.7,4.3-4.5,7.4-9,7.4C145.3,59.8,141.3,55.7,141.3,50.3z"/>
		<path d="M172.4,45.7h-4v13.7h-4.6V45.7h-4v-4.5h8.6h4V45.7z"/>
		<path d="M182.8,56.8H177l-0.8,2.6h-5.1l5.9-18.2h5.6l5.9,18.2h-5.1L182.8,56.8z M181.7,52.8l-1.8-6.3l-1.8,6.3H181.7z"/>
		<path d="M205.8,53.6c0,3.3-2.4,5.8-5.9,5.8h-9h-1V41.2h4.7h3.2c3.2,0,5.7,2,5.7,4.9c0,0.9-0.3,1.7-0.8,2.3
			C204.6,49.4,205.8,51.3,205.8,53.6z M194.6,45.4v2.4h3.8c0.3-0.3,0.5-0.7,0.5-1.1c0-0.7-0.5-1.3-1.2-1.3H194.6z M201.2,53.4
			c0-1.1-0.6-1.8-1.8-1.8h-4.7v3.6h4.7C200.6,55.2,201.2,54.4,201.2,53.4z"/>
		<path d="M230.7,54.9v8.3H226v-3.7h-18.2V41.2h4.7v13.7h3.4V41.2h4.7v13.7h3.4V41.2h4.7v13.7H230.7z"/>
		<path d="M242.1,50l-5.9,9.4h-3.6V41.2h4.7v9.4l5.9-9.4h3.6v18.2h-4.6V50z"/>
		<path d="M259.5,59.4l-5.2-8.2v8.2h-4.7V41.2h4.7v7.7l5-7.7h5.2l-5.8,8.9l6.1,9.4H259.5z"/>
	</g>
	<rect x="-11.4" y="-87.1" fill="#FFFFFF" width="117.7" height="55.2"/>
	<g>
		<g>
			<path fill="#D82615" d="M13.4-73v28.3l6.7-3.6V-66l3.6,1.3v14.4l3-1.6v-13.8L13.4-73z"/>
		</g>
		<polygon fill="#961406" points="13.3,-73 0.4,-65.9 0.4,-63.6 6.1,-65.7 6.1,-48.5 13.4,-44.6 13.4,-73 		"/>
	</g>
	<g>
		<path d="M36.6-62.8h-1.4V-67h-1.4v4.2h-1.4v-5.6h1.4h2.8V-62.8z"/>
		<path d="M40.9-64.2v1.3h-3h-0.4v-5.6h1.4h2v1.3h-2v0.8h1.8v1.3h-1.8v0.8H40.9z"/>
		<path d="M45.7-66.4c0,1.1-0.9,2-2,2h-0.7v1.7h-1.4v-5.6h1.4h0.7C44.8-68.4,45.7-67.6,45.7-66.4z M44.2-66.4c0-0.4-0.2-0.6-0.6-0.6
			h-0.7v1.2h0.7C44-65.8,44.2-66.1,44.2-66.4z"/>
		<path d="M51.1-64.6c0,1-0.7,1.8-1.8,1.8h-2.7h-0.3v-5.6h1.4h1c1,0,1.8,0.6,1.8,1.5c0,0.3-0.1,0.5-0.2,0.7
			C50.7-65.9,51.1-65.3,51.1-64.6z M47.7-67.1v0.7h1.2c0.1-0.1,0.2-0.2,0.2-0.3c0-0.2-0.1-0.4-0.4-0.4H47.7z M49.7-64.7
			c0-0.3-0.2-0.5-0.6-0.5h-1.4v1.1h1.4C49.5-64.1,49.7-64.3,49.7-64.7z"/>
		<path d="M51.7-68.4h1.4v1.7h0.7c1.1,0,2,0.8,2,2c0,1.1-0.9,2-2,2h-2.2V-68.4z M53.8-64.2c0.3,0,0.6-0.2,0.6-0.6s-0.2-0.6-0.6-0.6
			h-0.7v1.2H53.8z M56.3-68.4h1.4v5.6h-1.4V-68.4z"/>
		<path d="M61.5-65.7l-1.8,2.9h-1.1v-5.6H60v2.9l1.8-2.9h1.1v5.6h-1.4V-65.7z M59.6-69.9h2.6v1.1h-2.6V-69.9z"/>
	</g>
	<g>
		<path d="M36.5-54.9h-1.4v-4.2h-1.4v4.2h-1.4v-5.6h1.4h2.8V-54.9z"/>
		<path d="M37.2-57.6c0-1.6,1.3-2.9,2.9-2.9c1.6,0,2.9,1.3,2.9,2.9c0,1.6-1.3,2.9-2.9,2.9C38.5-54.7,37.2-56,37.2-57.6z M41.6-57.6
			c0-0.9-0.7-1.5-1.5-1.5c-0.9,0-1.5,0.6-1.5,1.5c0,0.9,0.7,1.5,1.5,1.5C41-56.1,41.6-56.8,41.6-57.6z"/>
		<path d="M43.5-57.6c0-1.6,1.2-2.9,2.9-2.9c1.4,0,2.5,0.9,2.7,2.3h-1.5c-0.2-0.5-0.7-0.9-1.3-0.9c-0.9,0-1.5,0.6-1.5,1.5
			c0,0.9,0.6,1.5,1.5,1.5c0.6,0,1.1-0.3,1.3-0.9h1.5c-0.2,1.3-1.4,2.3-2.8,2.3C44.7-54.7,43.5-56,43.5-57.6z"/>
		<path d="M53-59.1h-1.2v4.2h-1.4v-4.2h-1.2v-1.4h2.6H53V-59.1z"/>
		<path d="M56.2-55.7h-1.8l-0.2,0.8h-1.5l1.8-5.6h1.7l1.8,5.6h-1.5L56.2-55.7z M55.8-56.9l-0.5-1.9l-0.5,1.9H55.8z"/>
		<path d="M63.2-56.6c0,1-0.7,1.8-1.8,1.8h-2.7h-0.3v-5.6h1.4h1c1,0,1.8,0.6,1.8,1.5c0,0.3-0.1,0.5-0.2,0.7
			C62.8-57.9,63.2-57.3,63.2-56.6z M59.8-59.1v0.7H61c0.1-0.1,0.2-0.2,0.2-0.3c0-0.2-0.1-0.4-0.4-0.4H59.8z M61.8-56.7
			c0-0.3-0.2-0.5-0.6-0.5h-1.4v1.1h1.4C61.6-56.1,61.8-56.4,61.8-56.7z"/>
		<path d="M70.8-56.2v2.5h-1.4v-1.1h-5.6v-5.6h1.4v4.2h1v-4.2h1.4v4.2h1v-4.2h1.4v4.2H70.8z"/>
		<path d="M74.3-57.7l-1.8,2.9h-1.1v-5.6h1.4v2.9l1.8-2.9h1.1v5.6h-1.4V-57.7z"/>
		<path d="M79.6-54.9L78-57.4v2.5h-1.4v-5.6H78v2.3l1.5-2.3h1.6l-1.8,2.7l1.9,2.9H79.6z"/>
	</g>
	<g>
		<path fill="#747474" d="M32.6-49.8v1.6c0,0,0,0.1-0.1,0.1h-0.3c0,0-0.1,0-0.1-0.1v-1.9c0,0,0,0,0,0h1.4c0,0,0,0,0,0v1.9
			c0,0,0,0.1,0,0.1h-0.3c0,0-0.1,0-0.1-0.1v-1.6H32.6z"/>
		<path fill="#747474" d="M35.1-48c-0.5,0-0.8-0.4-0.8-1.1c0-0.7,0.3-1.1,0.9-1.1c0.5,0,0.8,0.4,0.8,1.1C35.9-48.4,35.6-48,35.1-48z
			 M35.1-49.8c-0.3,0-0.4,0.2-0.4,0.7c0,0.5,0.1,0.7,0.4,0.7s0.4-0.2,0.4-0.7C35.5-49.6,35.4-49.8,35.1-49.8z"/>
		<path fill="#747474" d="M37-49.8L37-49.8c0,0.4,0,0.7,0,0.9c0,0.3-0.1,0.9-0.7,0.9c0,0-0.1,0-0.1,0l-0.1-0.2c0,0,0,0,0,0
			c0,0,0,0,0.1-0.1l0,0c0.3,0,0.3-0.3,0.4-0.6c0-0.3,0-0.6,0-0.9V-50c0,0,0-0.1,0.1-0.1h1.1c0,0,0.1,0,0.1,0.1v1.9c0,0,0,0.1,0,0.1
			h-0.3c0,0,0,0,0,0v-1.6H37z"/>
		<path fill="#747474" d="M40.1-48.1C40.1-48.1,40-48.1,40.1-48.1l-0.4,0.1c0,0-0.1,0-0.1-0.1v-0.9c0,0,0-0.1,0-0.4l0,0
			c-0.1,0.2-0.2,0.3-0.2,0.4l-0.5,0.9c0,0,0,0-0.1,0h-0.3c0,0-0.1,0-0.1,0V-50c0,0,0,0,0,0l0.3-0.1c0,0,0,0,0,0v1c0,0.1,0,0.3,0,0.4
			h0c0.1-0.3,0.2-0.3,0.2-0.4l0.5-0.9c0,0,0,0,0,0l0.3-0.1c0,0,0,0,0,0c0,0,0,0,0,0V-48.1z"/>
		<path fill="#747474" d="M41.9-49.8C41.9-49.8,41.8-49.7,41.9-49.8l-0.8,0.1v1.6c0,0,0,0.1-0.1,0.1h-0.3c0,0-0.1,0-0.1-0.1V-50
			c0,0,0,0,0,0h1.1c0,0,0,0,0,0v0L41.9-49.8z"/>
		<path fill="#747474" d="M43.1-48c-0.2,0-0.3,0-0.5-0.1v0.8c0,0,0,0,0,0.1l-0.3,0.1c0,0,0,0,0,0c0,0,0,0,0-0.1v-2.2
			c0-0.2,0-0.2-0.1-0.4c0,0,0-0.1,0-0.1c0,0,0,0,0,0l0.3-0.1c0,0,0,0,0,0c0,0,0.1,0.1,0.1,0.2c0.2-0.2,0.3-0.2,0.6-0.2
			c0.4,0,0.7,0.3,0.7,1C43.8-48.4,43.6-48,43.1-48z M43-49.8c-0.1,0-0.2,0-0.4,0.2v1.1c0.2,0.1,0.2,0.1,0.4,0.1
			c0.3,0,0.4-0.2,0.4-0.7C43.4-49.6,43.3-49.8,43-49.8z"/>
		<path fill="#747474" d="M45.8-48.2C45.8-48.2,45.7-48.2,45.8-48.2L45.5-48c0,0,0,0,0,0c-0.1,0-0.1-0.1-0.1-0.3
			C45.1-48.1,45-48,44.7-48c-0.4,0-0.6-0.2-0.6-0.6c0-0.6,0.6-0.7,1.1-0.7v-0.1c0-0.3-0.1-0.3-0.3-0.3c-0.1,0-0.3,0-0.5,0.1
			c0,0,0,0,0,0c0,0,0,0,0,0l-0.1-0.2c0,0,0,0,0,0c0-0.1,0.5-0.2,0.7-0.2c0.5,0,0.7,0.2,0.7,0.6v0.8C45.6-48.5,45.7-48.4,45.8-48.2
			C45.7-48.2,45.8-48.2,45.8-48.2z M45.2-49c-0.3,0-0.7,0-0.7,0.4c0,0.2,0.1,0.3,0.3,0.3c0.1,0,0.3-0.1,0.4-0.2V-49z"/>
		<path fill="#747474" d="M47.2-47.2C47.2-47.2,47.2-47.2,47.2-47.2l0-0.9C47.1-48.1,47-48,46.8-48c-0.6,0-0.7-0.7-0.7-1.1
			c0-0.4,0.1-1.1,0.6-1.1c0.2,0,0.3,0.1,0.4,0.2v-0.8c0,0,0,0,0-0.1l0.3-0.1c0,0,0,0,0,0c0,0,0,0,0,0.1v0.9c0.1-0.1,0.2-0.2,0.4-0.2
			c0.5,0,0.6,0.7,0.6,1.1c0,0.4-0.1,1.1-0.7,1.1c-0.2,0-0.3-0.1-0.4-0.1v0.9c0,0,0,0,0,0H47.2z M47.2-49.7c-0.1-0.1-0.2-0.1-0.3-0.1
			c-0.3,0-0.3,0.4-0.3,0.7c0,0.3,0,0.7,0.3,0.7c0.1,0,0.2,0,0.3-0.1V-49.7z M47.6-48.5c0.1,0.1,0.2,0.1,0.3,0.1
			c0.3,0,0.3-0.4,0.3-0.7c0-0.3,0-0.7-0.3-0.7c-0.1,0-0.2,0-0.3,0.1V-48.5z"/>
		<path fill="#747474" d="M50.7-48.1C50.7-48.1,50.7-48.1,50.7-48.1l-0.4,0.1c0,0-0.1,0-0.1-0.1v-0.9c0,0,0-0.1,0-0.4l0,0
			c-0.1,0.2-0.2,0.3-0.2,0.4l-0.5,0.9c0,0,0,0-0.1,0h-0.3c0,0-0.1,0-0.1,0V-50c0,0,0,0,0,0l0.3-0.1c0,0,0,0,0,0v1c0,0.1,0,0.3,0,0.4
			h0c0.1-0.3,0.2-0.3,0.2-0.4l0.5-0.9c0,0,0,0,0,0l0.3-0.1c0,0,0,0,0,0c0,0,0,0,0,0V-48.1z"/>
		<path fill="#747474" d="M52.3-48.1C52.3-48.1,52.3-48.1,52.3-48.1l0-0.8h-0.2c-0.1,0-0.2,0-0.3,0.3l-0.1,0.2
			c-0.1,0.4-0.3,0.4-0.5,0.4c0,0-0.1,0-0.1,0l-0.1-0.3c0,0,0,0,0,0c0,0,0,0,0.1,0l0.1,0c0.1,0,0.1,0,0.2-0.2l0-0.2
			c0.1-0.3,0.2-0.3,0.2-0.3v0c-0.3-0.1-0.4-0.3-0.4-0.5c0-0.5,0.5-0.6,0.7-0.6h0.7c0,0,0,0,0,0v1.9c0,0,0,0,0,0H52.3z M52.3-49.8H52
			c-0.1,0-0.3,0.1-0.3,0.3c0,0.2,0.2,0.3,0.3,0.3h0.3V-49.8z"/>
		<path fill="#747474" d="M55.2-47.4h-0.3c-0.1,0-0.1,0-0.1-0.1v-3.4c0-0.1,0-0.1,0.1-0.1h0.3c0.1,0,0.1,0,0.1,0.1L55.2-47.4
			C55.3-47.4,55.3-47.4,55.2-47.4z"/>
		<path fill="#747474" d="M58.7-48.1C58.7-48,58.7-48,58.7-48.1c-0.1,0-0.1-0.1-0.2-0.2c-0.2,0.2-0.4,0.2-0.6,0.2
			c-0.4,0-0.7-0.4-0.7-1c0-0.7,0.3-1.1,0.8-1.1c0.1,0,0.3,0,0.4,0.1v-0.9c0,0,0-0.1,0-0.1l0.3-0.1c0,0,0,0,0,0c0,0,0,0,0,0.1v2.3
			c0,0.2,0,0.3,0.1,0.4c0,0,0,0,0,0.1c0,0,0,0,0,0L58.7-48.1z M58.5-49.7c-0.1-0.1-0.2-0.1-0.4-0.1c-0.3,0-0.4,0.2-0.4,0.7
			c0,0.5,0.1,0.7,0.3,0.7c0.1,0,0.3-0.1,0.4-0.2V-49.7z"/>
		<path fill="#747474" d="M60-48.1h-0.3c-0.1,0-0.1,0-0.1-0.1v-1.6h-0.3c-0.1,0-0.1,0-0.1-0.1V-50c0-0.1,0-0.1,0.1-0.1H60
			c0,0,0.1,0,0.1,0.1L60-48.1C60-48.1,60-48.1,60-48.1z M59.8-50.5c-0.2,0-0.3-0.1-0.3-0.3c0-0.2,0.1-0.3,0.3-0.3s0.3,0.1,0.3,0.3
			C60.1-50.6,60-50.5,59.8-50.5z"/>
		<path fill="#747474" d="M62.2-49.5v0.6c0,0.3,0,0.6,0,0.9c0,0.5-0.2,0.8-0.7,0.8c-0.2,0-0.8-0.1-0.8-0.2c0,0,0,0,0,0l0.1-0.2
			c0,0,0,0,0,0c0,0,0,0,0.1,0c0.2,0.1,0.4,0.1,0.6,0.1c0.3,0,0.4-0.1,0.4-0.4c0-0.1,0-0.2,0-0.3c-0.2,0.1-0.3,0.2-0.5,0.2
			c-0.4,0-0.7-0.4-0.7-0.9c0-0.7,0.3-1.1,0.8-1.1c0.2,0,0.3,0,0.5,0.2c0-0.1,0.1-0.2,0.1-0.2c0,0,0,0,0,0l0.3,0.1c0,0,0,0,0,0
			c0,0,0,0,0,0C62.2-49.8,62.2-49.7,62.2-49.5z M61.8-49.7c-0.1-0.1-0.2-0.1-0.3-0.1c-0.3,0-0.4,0.2-0.4,0.7c0,0.5,0.1,0.7,0.3,0.7
			c0.1,0,0.3-0.1,0.4-0.2V-49.7z"/>
		<path fill="#747474" d="M63.3-48.1H63c-0.1,0-0.1,0-0.1-0.1v-1.6h-0.3c-0.1,0-0.1,0-0.1-0.1V-50c0-0.1,0-0.1,0.1-0.1h0.7
			c0,0,0.1,0,0.1,0.1L63.3-48.1C63.3-48.1,63.3-48.1,63.3-48.1z M63.1-50.5c-0.2,0-0.3-0.1-0.3-0.3c0-0.2,0.1-0.3,0.3-0.3
			s0.3,0.1,0.3,0.3C63.4-50.6,63.2-50.5,63.1-50.5z"/>
		<path fill="#747474" d="M65.1-48.2c0,0.1-0.4,0.2-0.5,0.2c-0.4,0-0.5-0.3-0.5-0.6v-1.1h-0.3c-0.1,0-0.1,0-0.1-0.1V-50
			c0,0,0-0.1,0.1-0.1h0.3v-0.5c0,0,0-0.1,0.1-0.1l0.3-0.1c0,0,0,0,0,0c0,0,0,0,0,0.1v0.6H65c0,0,0.1,0,0.1,0c0,0,0,0,0,0l0,0.2
			c0,0,0,0.1-0.1,0.1h-0.5v1.1c0,0.2,0,0.3,0.2,0.3c0.1,0,0.2,0,0.3-0.1c0,0,0,0,0,0c0,0,0,0,0,0L65.1-48.2
			C65.1-48.2,65.1-48.2,65.1-48.2z"/>
		<path fill="#747474" d="M67-48.2C67-48.2,67-48.2,67-48.2L66.7-48c0,0,0,0,0,0c-0.1,0-0.1-0.1-0.1-0.3C66.4-48.1,66.2-48,66-48
			c-0.4,0-0.6-0.2-0.6-0.6c0-0.6,0.6-0.7,1.1-0.7v-0.1c0-0.3-0.1-0.3-0.3-0.3c-0.1,0-0.3,0-0.5,0.1c0,0,0,0,0,0c0,0,0,0,0,0
			l-0.1-0.2c0,0,0,0,0,0c0-0.1,0.5-0.2,0.7-0.2c0.5,0,0.7,0.2,0.7,0.6v0.8C66.9-48.5,66.9-48.4,67-48.2C67-48.2,67-48.2,67-48.2z
			 M66.5-49c-0.3,0-0.7,0-0.7,0.4c0,0.2,0.1,0.3,0.3,0.3c0.1,0,0.3-0.1,0.4-0.2V-49z"/>
		<path fill="#747474" d="M68.4-48.1c0,0.1-0.3,0.1-0.4,0.1c-0.5,0-0.5-0.4-0.5-0.9v-2c0,0,0-0.1,0.1-0.1l0.3-0.1c0,0,0,0,0,0
			c0,0,0,0,0,0.1v2.4c0,0.1,0,0.2,0.1,0.2c0,0,0.1,0,0.1,0c0,0,0,0,0,0s0,0,0,0L68.4-48.1C68.4-48.2,68.4-48.1,68.4-48.1z"/>
		<path fill="#747474" d="M69.6-48.9h-1c-0.1,0-0.1,0-0.1-0.1v-0.3c0-0.1,0-0.1,0.1-0.1h1c0.1,0,0.1,0,0.1,0.1L69.6-48.9
			C69.7-48.9,69.7-48.9,69.6-48.9z"/>
		<path fill="#747474" d="M71.6-48.2C71.6-48.2,71.6-48.2,71.6-48.2L71.4-48c0,0,0,0,0,0c-0.1,0-0.1-0.1-0.1-0.3
			C71-48.1,70.8-48,70.6-48c-0.4,0-0.6-0.2-0.6-0.6c0-0.6,0.6-0.7,1.1-0.7v-0.1c0-0.3-0.1-0.3-0.3-0.3c-0.1,0-0.3,0-0.5,0.1
			c0,0,0,0,0,0c0,0,0,0,0,0l-0.1-0.2c0,0,0,0,0,0c0-0.1,0.5-0.2,0.7-0.2c0.5,0,0.7,0.2,0.7,0.6v0.8C71.5-48.5,71.5-48.4,71.6-48.2
			C71.6-48.2,71.6-48.2,71.6-48.2z M71.1-49c-0.3,0-0.7,0-0.7,0.4c0,0.2,0.1,0.3,0.3,0.3c0.1,0,0.3-0.1,0.4-0.2V-49z"/>
		<path fill="#747474" d="M73.6-49.5v0.6c0,0.3,0,0.6,0,0.9c0,0.5-0.2,0.8-0.7,0.8c-0.2,0-0.8-0.1-0.8-0.2c0,0,0,0,0,0l0.1-0.2
			c0,0,0,0,0,0c0,0,0,0,0.1,0c0.2,0.1,0.4,0.1,0.6,0.1c0.3,0,0.4-0.1,0.4-0.4c0-0.1,0-0.2,0-0.3c-0.2,0.1-0.3,0.2-0.5,0.2
			c-0.4,0-0.7-0.4-0.7-0.9c0-0.7,0.3-1.1,0.8-1.1c0.2,0,0.3,0,0.5,0.2c0-0.1,0.1-0.2,0.1-0.2c0,0,0,0,0,0l0.3,0.1c0,0,0,0,0,0
			c0,0,0,0,0,0C73.6-49.8,73.6-49.7,73.6-49.5z M73.2-49.7c-0.1-0.1-0.2-0.1-0.3-0.1c-0.3,0-0.4,0.2-0.4,0.7c0,0.5,0.1,0.7,0.3,0.7
			c0.1,0,0.3-0.1,0.4-0.2V-49.7z"/>
		<path fill="#747474" d="M75.8-49.1c0,0.1,0,0.1-0.1,0.1h-1.1c0,0.4,0.2,0.6,0.5,0.6c0.2,0,0.4-0.1,0.5-0.1c0,0,0,0,0,0
			c0,0,0,0,0,0l0.1,0.2c0,0,0,0,0,0c0,0.1-0.5,0.2-0.7,0.2c-0.6,0-0.9-0.4-0.9-1.1c0-0.6,0.3-1.1,0.9-1.1
			C75.5-50.2,75.8-49.8,75.8-49.1L75.8-49.1z M75-49.8c-0.2,0-0.4,0.2-0.4,0.5h0.8C75.3-49.7,75.2-49.8,75-49.8z"/>
		<path fill="#747474" d="M77.7-48.1h-0.3c-0.1,0-0.1,0-0.1-0.1v-1.3c0-0.2-0.1-0.3-0.3-0.3c-0.2,0-0.3,0.1-0.4,0.2v1.4
			c0,0,0,0.1-0.1,0.1h-0.3c0,0-0.1,0-0.1-0.1v-1.4c0-0.2,0-0.3-0.1-0.4c0,0,0,0,0,0c0,0,0,0,0,0l0.3-0.1c0,0,0,0,0,0
			c0,0,0.1,0.1,0.1,0.3c0.2-0.2,0.4-0.3,0.6-0.3c0.4,0,0.5,0.2,0.5,0.6L77.7-48.1C77.8-48.1,77.8-48.1,77.7-48.1z"/>
		<path fill="#747474" d="M79.7-49.7C79.6-49.6,79.6-49.6,79.7-49.7C79.6-49.6,79.6-49.6,79.7-49.7c-0.2-0.1-0.3-0.2-0.4-0.2
			c-0.3,0-0.5,0.2-0.5,0.7c0,0.5,0.1,0.7,0.4,0.7c0.2,0,0.3-0.1,0.4-0.2c0,0,0,0,0,0c0,0,0,0,0,0l0.1,0.2c0,0,0,0,0,0
			c0,0.1-0.5,0.2-0.6,0.2c-0.5,0-0.8-0.4-0.8-1c0-0.7,0.3-1.1,0.9-1.1c0.2,0,0.6,0.1,0.6,0.3c0,0,0,0,0,0L79.7-49.7z"/>
		<path fill="#747474" d="M81.3-48.3c-0.1,0.4-0.2,1.1-0.8,1.1c-0.1,0-0.5-0.1-0.5-0.2c0,0,0,0,0,0l0.1-0.2c0,0,0,0,0,0c0,0,0,0,0,0
			c0.1,0.1,0.2,0.1,0.3,0.1c0.2,0,0.3-0.1,0.3-0.3l0.1-0.2h-0.2c0,0-0.1,0-0.1,0L80-50c0,0,0,0,0,0c0,0,0,0,0,0l0.3-0.1c0,0,0,0,0,0
			c0,0,0,0,0.1,0l0.4,1.3c0.1,0.2,0.1,0.3,0.1,0.5c0-0.2,0-0.3,0.1-0.4l0.3-1.4c0,0,0-0.1,0-0.1c0,0,0,0,0,0l0.3,0.1c0,0,0,0,0,0
			c0,0,0,0,0,0L81.3-48.3z"/>
	</g>
	<g>
		<g>
			<g>
				<path fill="#D82615" d="M13.4-149v28.3l6.7-3.6V-142l3.6,1.3v14.4l3-1.6v-13.8L13.4-149z"/>
			</g>
			<polygon fill="#961406" points="13.3,-149 0.4,-141.9 0.4,-139.6 6.1,-141.7 6.1,-124.5 13.4,-120.6 13.4,-149 			"/>
		</g>
		<g>
			<g>
				<path d="M38.8-136.6H37v-5.1h-1.7v5.1h-1.7v-6.8h1.7h3.4V-136.6z"/>
				<path d="M44-138.3v1.6h-3.6h-0.5v-6.8h1.7h2.4v1.6h-2.4v1h2.1v1.5h-2.1v1H44z"/>
				<path d="M49.8-141c0,1.4-1.1,2.4-2.4,2.4h-0.9v2h-1.7v-6.8h1.7h0.9C48.8-143.4,49.8-142.4,49.8-141z M48.1-141
					c0-0.4-0.3-0.7-0.7-0.7h-0.9v1.4h0.9C47.8-140.3,48.1-140.6,48.1-141z"/>
				<path d="M56.4-138.8c0,1.2-0.9,2.2-2.2,2.2h-3.3h-0.4v-6.8h1.7h1.2c1.2,0,2.1,0.7,2.1,1.8c0,0.3-0.1,0.6-0.3,0.9
					C56-140.4,56.4-139.7,56.4-138.8z M52.2-141.8v0.9h1.4c0.1-0.1,0.2-0.3,0.2-0.4c0-0.3-0.2-0.5-0.5-0.5H52.2z M54.7-138.9
					c0-0.4-0.2-0.7-0.7-0.7h-1.8v1.3H54C54.5-138.2,54.7-138.5,54.7-138.9z"/>
				<path d="M57.1-143.4h1.7v2h0.9c1.4,0,2.4,1,2.4,2.4c0,1.4-1.1,2.4-2.4,2.4h-2.6V-143.4z M59.8-138.3c0.4,0,0.7-0.3,0.7-0.7
					s-0.3-0.7-0.7-0.7h-0.9v1.4H59.8z M62.7-143.4h1.7v6.8h-1.7V-143.4z"/>
				<path d="M69.1-140.1l-2.2,3.5h-1.3v-6.8h1.7v3.5l2.2-3.5h1.3v6.8h-1.7V-140.1z M66.7-145.3h3.1v1.4h-3.1V-145.3z"/>
			</g>
			<g>
				<path d="M38.7-127H37v-5.1h-1.7v5.1h-1.7v-6.8h1.7h3.4V-127z"/>
				<path d="M39.5-130.4c0-2,1.6-3.5,3.6-3.5s3.6,1.5,3.6,3.5s-1.6,3.5-3.6,3.5S39.5-128.4,39.5-130.4z M44.9-130.4
					c0-1.1-0.8-1.8-1.8-1.8s-1.8,0.8-1.8,1.8c0,1.1,0.8,1.8,1.8,1.8S44.9-129.3,44.9-130.4z"/>
				<path d="M47.2-130.4c0-2,1.5-3.5,3.5-3.5c1.7,0,3.1,1.1,3.3,2.7h-1.8c-0.2-0.6-0.8-1.1-1.5-1.1c-1.1,0-1.8,0.8-1.8,1.8
					c0,1.1,0.7,1.8,1.8,1.8c0.7,0,1.4-0.4,1.5-1.1h1.8c-0.3,1.6-1.7,2.7-3.3,2.7C48.7-126.8,47.2-128.4,47.2-130.4z"/>
				<path d="M58.7-132.1h-1.5v5.1h-1.7v-5.1h-1.5v-1.7h3.2h1.5V-132.1z"/>
				<path d="M62.6-127.9h-2.2l-0.3,1h-1.9l2.2-6.8h2.1l2.2,6.8h-1.9L62.6-127.9z M62.2-129.4l-0.7-2.3l-0.7,2.3H62.2z"/>
				<path d="M71.2-129.1c0,1.2-0.9,2.2-2.2,2.2h-3.3h-0.4v-6.8H67h1.2c1.2,0,2.1,0.7,2.1,1.8c0,0.3-0.1,0.6-0.3,0.9
					C70.7-130.7,71.2-130,71.2-129.1z M67-132.2v0.9h1.4c0.1-0.1,0.2-0.3,0.2-0.4c0-0.3-0.2-0.5-0.5-0.5H67z M69.4-129.2
					c0-0.4-0.2-0.7-0.7-0.7H67v1.3h1.7C69.2-128.5,69.4-128.8,69.4-129.2z"/>
				<path d="M80.4-128.6v3.1h-1.7v-1.4h-6.8v-6.8h1.7v5.1h1.3v-5.1h1.7v5.1h1.3v-5.1h1.7v5.1H80.4z"/>
				<path d="M84.6-130.5l-2.2,3.5h-1.3v-6.8h1.7v3.5l2.2-3.5h1.3v6.8h-1.7V-130.5z"/>
				<path d="M91.1-127l-1.9-3v3h-1.7v-6.8h1.7v2.8l1.8-2.8h1.9l-2.2,3.3L93-127H91.1z"/>
			</g>
		</g>
	</g>
	<g>
		<g>
			<path fill="#D82615" d="M67.4-238.3v28.3l6.7-3.6v-17.7l3.6,1.3v14.4l3-1.6V-231L67.4-238.3z"/>
		</g>
		<polygon fill="#961406" points="67.3,-238.3 54.4,-231.2 54.4,-229 60.1,-231.1 60.1,-213.9 67.4,-210 67.4,-238.3 		"/>
	</g>
	<g>
		<path d="M50.8-194.6h-2.1v-6.3h-2.1v6.3h-2.1v-8.4h2.1h4.2V-194.6z"/>
		<path d="M57.3-196.6v2h-4.5h-0.7v-8.4h2.1h3v2h-3v1.2h2.7v1.9h-2.7v1.3H57.3z"/>
		<path d="M64.5-200.1c0,1.7-1.3,2.9-3,2.9h-1.1v2.5h-2.1v-8.4h2.1h1.1C63.2-203,64.5-201.8,64.5-200.1z M62.4-200.1
			c0-0.5-0.4-0.9-0.9-0.9h-1.1v1.8h1.1C62-199.2,62.4-199.5,62.4-200.1z"/>
		<path d="M72.7-197.3c0,1.5-1.1,2.7-2.7,2.7h-4.1h-0.5v-8.4h2.1H69c1.5,0,2.6,0.9,2.6,2.3c0,0.4-0.1,0.8-0.3,1.1
			C72.1-199.2,72.7-198.3,72.7-197.3z M67.5-201v1.1h1.8c0.2-0.1,0.2-0.3,0.2-0.5c0-0.3-0.2-0.6-0.6-0.6H67.5z M70.5-197.4
			c0-0.5-0.3-0.8-0.9-0.8h-2.2v1.7h2.2C70.3-196.5,70.5-196.9,70.5-197.4z"/>
		<path d="M73.6-203h2.1v2.5h1.1c1.7,0,3,1.2,3,2.9c0,1.7-1.3,2.9-3,2.9h-3.3V-203z M76.9-196.6c0.5,0,0.9-0.4,0.9-0.9
			s-0.4-0.9-0.9-0.9h-1.1v1.8H76.9z M80.6-203h2.1v8.4h-2.1V-203z"/>
		<path d="M88.4-198.9l-2.7,4.3H84v-8.4h2.1v4.3l2.7-4.3h1.7v8.4h-2.1V-198.9z M85.5-205.3h3.9v1.7h-3.9V-205.3z"/>
	</g>
	<g>
		<path d="M37.3-182.6h-2.1v-6.3h-2.1v6.3H31v-8.4h2.1h4.2V-182.6z"/>
		<path d="M38.3-186.8c0-2.5,2-4.4,4.4-4.4s4.4,1.9,4.4,4.4c0,2.5-2,4.4-4.4,4.4S38.3-184.3,38.3-186.8z M45-186.8
			c0-1.3-1-2.3-2.3-2.3s-2.3,0.9-2.3,2.3c0,1.3,1,2.3,2.3,2.3S45-185.4,45-186.8z"/>
		<path d="M47.8-186.8c0-2.5,1.8-4.4,4.4-4.4c2.1,0,3.8,1.4,4.1,3.4h-2.2c-0.2-0.8-1-1.3-1.9-1.3c-1.4,0-2.2,0.9-2.2,2.3
			c0,1.3,0.9,2.3,2.2,2.3c0.9,0,1.7-0.5,1.9-1.3h2.2c-0.3,2-2.1,3.4-4.1,3.4C49.6-182.4,47.8-184.3,47.8-186.8z"/>
		<path d="M62.1-188.9h-1.8v6.3h-2.1v-6.3h-1.8v-2.1h4h1.8V-188.9z"/>
		<path d="M66.9-183.8h-2.7l-0.3,1.2h-2.3l2.7-8.4h2.6l2.7,8.4h-2.3L66.9-183.8z M66.4-185.7l-0.8-2.9l-0.8,2.9H66.4z"/>
		<path d="M77.5-185.3c0,1.5-1.1,2.7-2.7,2.7h-4.1h-0.5v-8.4h2.1h1.5c1.5,0,2.6,0.9,2.6,2.3c0,0.4-0.1,0.8-0.3,1.1
			C77-187.2,77.5-186.3,77.5-185.3z M72.4-189v1.1h1.8c0.2-0.1,0.2-0.3,0.2-0.5c0-0.3-0.2-0.6-0.6-0.6H72.4z M75.4-185.4
			c0-0.5-0.3-0.8-0.9-0.8h-2.2v1.7h2.2C75.1-184.5,75.4-184.9,75.4-185.4z"/>
		<path d="M89-184.7v3.8h-2.1v-1.7h-8.4v-8.4h2.1v6.3h1.6v-6.3h2.1v6.3h1.6v-6.3H88v6.3H89z"/>
		<path d="M94.2-186.9l-2.7,4.3h-1.7v-8.4H92v4.3l2.7-4.3h1.7v8.4h-2.1V-186.9z"/>
		<path d="M102.3-182.6l-2.4-3.8v3.8h-2.1v-8.4h2.1v3.5l2.3-3.5h2.4l-2.7,4.1l2.8,4.3H102.3z"/>
	</g>
	<path fill="#747474" d="M109.3,75c0.1,0,0.1,0,0.1,0.1v6.3c0,0.1,0,0.2-0.1,0.2h-1c-0.1,0-0.2-0.1-0.2-0.2v-5.3h-2.2v5.3
		c0,0.1-0.1,0.2-0.2,0.2h-1c-0.1,0-0.2-0.1-0.2-0.2v-6.2c0-0.1,0-0.1,0.1-0.1H109.3z M116.6,78.2c0,2.2-1.1,3.5-2.8,3.5
		c-1.7,0-2.8-1.3-2.8-3.5c0-2.2,1.1-3.5,2.8-3.5C115.6,74.8,116.6,76.1,116.6,78.2z M115.2,78.2c0-1.6-0.4-2.3-1.3-2.3
		c-0.9,0-1.4,0.7-1.4,2.3c0,1.7,0.4,2.4,1.4,2.4S115.2,79.9,115.2,78.2z M122.7,75H119c-0.2,0-0.2,0.1-0.2,0.2v0.7
		c0,1,0,1.7-0.1,2.8c-0.1,0.9-0.3,1.9-1.2,1.9l-0.1,0c-0.1,0-0.2,0-0.2,0.2c0,0,0,0.1,0,0.1l0.2,0.7c0,0.1,0.1,0.2,0.2,0.2
		c1.8,0,2.2-1.9,2.2-2.8c0.1-0.6,0.1-1.5,0.1-2.6v-0.3h1.5v5.3c0,0.1,0,0.1,0.1,0.1h1.1c0,0,0.1,0,0.1-0.2v-6.2
		C122.9,75,122.8,75,122.7,75z M129.9,74.8l-1,0.2c-0.1,0-0.1,0.1-0.1,0.1l-1.7,3c-0.2,0.4-0.3,0.5-0.7,1.4h-0.1
		c0-0.5,0.1-1,0.1-1.4v-3.3c0-0.1,0-0.1-0.1-0.1l-1.1,0.2c-0.1,0-0.1,0-0.1,0.1v6.3c0,0,0,0.1,0.2,0.1h1c0.1,0,0.1,0,0.2-0.1l1.7-3
		c0.3-0.5,0.5-0.8,0.8-1.4l0,0c-0.1,0.9-0.1,1.2-0.1,1.4v3c0,0.1,0.1,0.2,0.2,0.2h1c0,0,0.1,0,0.1-0.2v-6.5
		C130.1,74.9,130.1,74.8,129.9,74.8C130,74.8,129.9,74.8,129.9,74.8z M132.3,75c-0.1,0-0.1,0-0.1,0.2v6.2c0,0.1,0.1,0.2,0.2,0.2h1
		c0.1,0,0.2-0.1,0.2-0.2v-5.2h2.3c0.1,0,0.2-0.1,0.2-0.2l0.2-0.8v-0.1c0-0.1-0.1-0.1-0.2-0.1H132.3z M142.4,78.1
		c0,2.3-0.8,3.6-2.3,3.6c-0.5,0-0.9-0.1-1.5-0.5v2.7c0,0.1,0,0.2-0.2,0.2l-1,0.2c0,0-0.1,0-0.1,0c-0.1,0-0.1,0-0.1-0.2v-7.3
		c0-0.6,0-0.8-0.2-1.2c-0.1-0.1-0.1-0.2-0.1-0.3c0-0.1,0-0.1,0.1-0.1l0.9-0.4c0,0,0.1,0,0.1,0c0.1,0,0.3,0.4,0.4,0.8
		c0.7-0.5,1.1-0.8,1.8-0.8C141.6,74.8,142.4,75.9,142.4,78.1z M141,78.2c0-1.6-0.3-2.3-1.1-2.3c-0.4,0-0.7,0.1-1.3,0.6v3.7
		c0.5,0.3,0.8,0.4,1.2,0.4C140.7,80.6,141,80,141,78.2z M148.7,81c0,0,0,0.1,0,0.1c0,0,0,0.1-0.1,0.1l-0.8,0.4c-0.1,0-0.1,0-0.1,0
		c-0.2,0-0.3-0.4-0.5-0.8c-0.6,0.6-1.1,0.8-1.8,0.8c-1.2,0-1.9-0.8-1.9-1.9c0-2,1.9-2.3,3.5-2.3V77c0-0.8-0.3-1.1-1.1-1.1
		c-0.5,0-0.9,0.1-1.5,0.4c0,0-0.1,0-0.1,0c-0.1,0-0.1,0-0.1-0.1l-0.2-0.7c0,0,0-0.1,0-0.1c0-0.4,1.6-0.7,2.2-0.7
		c1.5,0,2.2,0.6,2.2,2v2.6C148.4,80.2,148.5,80.6,148.7,81z M147.1,78.4c-0.8,0-2.2,0.1-2.2,1.2c0,0.6,0.4,1,0.9,1
		c0.4,0,0.8-0.2,1.3-0.6V78.4z M158.1,78.3c0,1.2-0.2,3.5-2.2,3.5c-0.6,0-0.9-0.2-1.2-0.4v2.9c0,0.1-0.1,0.2-0.1,0.2h-1.1
		c-0.1,0-0.1-0.1-0.1-0.2v-2.9c-0.2,0.2-0.6,0.4-1.2,0.4c-2,0-2.2-2.3-2.2-3.5c0-1.3,0.3-3.5,2.1-3.5c0.6,0,1,0.3,1.3,0.5v-2.8
		c0-0.1,0-0.2,0.1-0.2l1-0.2c0,0,0.1,0,0.1,0c0.1,0,0.1,0.1,0.1,0.2v3c0.3-0.3,0.7-0.5,1.3-0.5C157.8,74.8,158.1,76.9,158.1,78.3z
		 M153.4,76.4c-0.3-0.4-0.6-0.5-0.9-0.5c-1,0-1,1.4-1,2.4c0,0.9,0,2.3,1.1,2.3c0.3,0,0.6-0.1,0.8-0.4V76.4z M156.7,78.4
		c0-1,0-2.4-1-2.4c-0.3,0-0.6,0.1-0.9,0.5v3.9c0.3,0.3,0.6,0.4,0.8,0.4C156.7,80.6,156.7,79.3,156.7,78.4z M164.6,74.8l-1,0.2
		c-0.1,0-0.1,0.1-0.1,0.1l-1.7,3c-0.2,0.4-0.3,0.5-0.7,1.4H161c0-0.5,0.1-1,0.1-1.4v-3.3c0-0.1,0-0.1-0.1-0.1l-1.1,0.2
		c-0.1,0-0.1,0-0.1,0.1v6.3c0,0,0,0.1,0.2,0.1h1c0.1,0,0.1,0,0.2-0.1l1.7-3c0.3-0.5,0.5-0.8,0.8-1.4l0,0c-0.1,0.9-0.1,1.2-0.1,1.4v3
		c0,0.1,0.1,0.2,0.2,0.2h1c0,0,0.1,0,0.1-0.2v-6.5C164.9,74.9,164.8,74.8,164.6,74.8C164.7,74.8,164.7,74.8,164.6,74.8z M171.4,75
		c0.1,0,0.1,0,0.1,0.1v6.3c0,0.1-0.1,0.1-0.1,0.1h-1.1c-0.1,0-0.1-0.1-0.1-0.2v-2.4h-0.6c-0.4,0-0.8,0.1-1,0.8l-0.2,0.6
		c-0.3,1.2-1,1.4-1.8,1.4c-0.1,0-0.2,0-0.2-0.1l-0.2-0.8c0,0,0,0,0,0c0-0.1,0.1-0.1,0.2-0.1l0.2,0c0.2-0.1,0.4-0.1,0.6-0.6l0.1-0.5
		c0.3-0.9,0.5-0.9,0.8-1v0c-1.1-0.2-1.3-0.9-1.3-1.6c0-1.6,1.6-1.9,2.3-1.9H171.4z M170.2,76h-1c-0.4,0-1,0.2-1,0.9
		c0,0.8,0.7,1,1.1,1h0.9V76z M179.6,72.3h-0.9c-0.2,0-0.2,0-0.2,0.2v11.1c0,0.2,0,0.2,0.2,0.2h0.9c0.2,0,0.2,0,0.2-0.2V72.5
		C179.9,72.4,179.8,72.3,179.6,72.3z M191.9,80.9c0,0.1,0.1,0.1,0.1,0.2c0,0,0,0.1-0.1,0.1l-0.8,0.4c0,0-0.1,0-0.1,0
		c-0.2,0-0.3-0.3-0.4-0.7c-0.7,0.6-1.3,0.8-1.9,0.8c-1.3,0-2.1-1.3-2.1-3.4c0-2.3,1-3.6,2.5-3.6c0.5,0,0.9,0.1,1.4,0.4v-3
		c0-0.1,0-0.2,0.1-0.2l1-0.2c0.1,0,0.1,0,0.1,0c0.1,0,0.1,0.1,0.1,0.2v7.6C191.6,80.3,191.7,80.6,191.9,80.9z M190.3,76.2
		c-0.4-0.2-0.8-0.3-1.2-0.3c-0.9,0-1.3,0.6-1.3,2.3c0,1.7,0.3,2.4,1.1,2.4c0.5,0,0.9-0.2,1.3-0.6V76.2z M194.7,71.9
		c-0.5,0-1,0.4-1,1c0,0.5,0.4,1,1,1c0.5,0,1-0.4,1-1C195.7,72.3,195.2,71.9,194.7,71.9z M195.3,75h-2.2c-0.2,0-0.2,0-0.2,0.2v0.6
		c0,0.2,0,0.2,0.2,0.2h1v5.3c0,0.2,0,0.2,0.2,0.2h1c0.2,0,0.2,0,0.2-0.2v-6.2C195.5,75,195.4,75,195.3,75z M202.7,75.1
		c0.1,0,0.1,0.1,0.1,0.1c0,0,0,0.1,0,0.1c-0.3,0.5-0.4,0.9-0.4,1.5v2c0,1.1,0.1,1.9,0.1,2.8c0,1.7-0.7,2.6-2.4,2.6
		c-0.7,0-2.5-0.4-2.5-0.7c0,0,0-0.1,0-0.1l0.3-0.7c0-0.1,0.1-0.1,0.1-0.1c0.1,0,0.1,0,0.2,0.1c0.7,0.3,1.3,0.5,1.8,0.5
		c0.9,0,1.2-0.3,1.2-1.3c0-0.4,0-0.8-0.1-1.1c-0.6,0.4-1.1,0.6-1.7,0.6c-1.3,0-2.1-1.2-2.1-3.1c0-2.2,0.9-3.5,2.5-3.5
		c0.6,0,1,0.1,1.6,0.6c0.1-0.2,0.2-0.6,0.4-0.6c0,0,0.1,0,0.1,0L202.7,75.1z M201,76.3c-0.5-0.3-0.8-0.4-1.1-0.4
		c-0.8,0-1.3,0.8-1.3,2.2c0,1.5,0.3,2.2,1.1,2.2c0.4,0,0.8-0.2,1.3-0.6V76.3z M205.4,71.9c-0.5,0-1,0.4-1,1c0,0.5,0.4,1,1,1
		c0.5,0,1-0.4,1-1C206.3,72.3,205.9,71.9,205.4,71.9z M205.9,75h-2.2c-0.2,0-0.2,0-0.2,0.2v0.6c0,0.2,0,0.2,0.2,0.2h1v5.3
		c0,0.2,0,0.2,0.2,0.2h1c0.2,0,0.2,0,0.2-0.2v-6.2C206.1,75,206.1,75,205.9,75z M211.9,80.4c0-0.1,0-0.2-0.1-0.2c0,0-0.1,0-0.1,0
		c-0.3,0.1-0.6,0.3-1,0.3c-0.5,0-0.7-0.2-0.7-1V76h1.6c0.1,0,0.2,0,0.2-0.2l0.1-0.6c0-0.1,0-0.1,0-0.1c0-0.1,0-0.1-0.2-0.1h-1.8v-2
		c0-0.1,0-0.2-0.1-0.2c0,0-0.1,0-0.2,0l-0.9,0.2c-0.1,0-0.2,0.1-0.2,0.2V75h-0.9c-0.2,0-0.2,0-0.2,0.2v0.6c0,0.2,0,0.2,0.2,0.2h0.9
		v3.6c0,1.2,0.3,2,1.7,2c0.4,0,1.8-0.2,1.8-0.5c0,0,0-0.1,0-0.1L211.9,80.4z M218.2,81c0,0,0,0.1,0,0.1c0,0,0,0.1-0.1,0.1l-0.8,0.4
		c-0.1,0-0.1,0-0.1,0c-0.2,0-0.3-0.4-0.5-0.8c-0.6,0.6-1.1,0.8-1.8,0.8c-1.2,0-1.9-0.8-1.9-1.9c0-2,1.9-2.3,3.5-2.3V77
		c0-0.8-0.3-1.1-1.1-1.1c-0.5,0-0.9,0.1-1.5,0.4c0,0-0.1,0-0.1,0c-0.1,0-0.1,0-0.1-0.1l-0.2-0.7c0,0,0-0.1,0-0.1
		c0-0.4,1.6-0.7,2.2-0.7c1.5,0,2.2,0.6,2.2,2v2.6C217.8,80.2,217.9,80.6,218.2,81z M216.5,78.4c-0.8,0-2.2,0.1-2.2,1.2
		c0,0.6,0.4,1,0.9,1c0.4,0,0.8-0.2,1.3-0.6V78.4z M222.5,80.5c0-0.1-0.1-0.1-0.1-0.1s-0.1,0-0.1,0c-0.2,0.1-0.3,0.1-0.5,0.1
		c-0.3,0-0.5-0.2-0.5-0.6V72c0-0.1,0-0.2-0.1-0.2c0,0-0.1,0-0.1,0l-1,0.2c-0.1,0-0.2,0.1-0.2,0.2v6.6c0,1.6-0.1,2.9,1.5,2.9
		c0.4,0,1.3-0.2,1.3-0.3c0,0,0-0.1,0-0.1L222.5,80.5z M226.8,77.5h-3.4c-0.2,0-0.2,0-0.2,0.2v0.9c0,0.2,0,0.2,0.2,0.2h3.4
		c0.2,0,0.2,0,0.2-0.2v-0.9C227,77.5,227,77.5,226.8,77.5z M233.3,81c0,0,0,0.1,0,0.1c0,0,0,0.1-0.1,0.1l-0.8,0.4
		c-0.1,0-0.1,0-0.1,0c-0.2,0-0.3-0.4-0.5-0.8c-0.6,0.6-1.1,0.8-1.8,0.8c-1.2,0-1.9-0.8-1.9-1.9c0-2,1.9-2.3,3.5-2.3V77
		c0-0.8-0.3-1.1-1.1-1.1c-0.5,0-0.9,0.1-1.5,0.4c0,0-0.1,0-0.1,0c-0.1,0-0.1,0-0.1-0.1l-0.2-0.7c0,0,0-0.1,0-0.1
		c0-0.4,1.6-0.7,2.2-0.7c1.5,0,2.2,0.6,2.2,2v2.6C233,80.2,233,80.6,233.3,81z M231.6,78.4c-0.8,0-2.2,0.1-2.2,1.2
		c0,0.6,0.4,1,0.9,1c0.4,0,0.8-0.2,1.3-0.6V78.4z M240.1,75.1c0.1,0,0.1,0.1,0.1,0.1c0,0,0,0.1,0,0.1c-0.3,0.5-0.4,0.9-0.4,1.5v2
		c0,1.1,0.1,1.9,0.1,2.8c0,1.7-0.7,2.6-2.4,2.6c-0.7,0-2.5-0.4-2.5-0.7c0,0,0-0.1,0-0.1l0.3-0.7c0-0.1,0.1-0.1,0.1-0.1
		c0.1,0,0.1,0,0.2,0.1c0.7,0.3,1.3,0.5,1.8,0.5c0.9,0,1.2-0.3,1.2-1.3c0-0.4,0-0.8-0.1-1.1c-0.6,0.4-1.1,0.6-1.7,0.6
		c-1.3,0-2.1-1.2-2.1-3.1c0-2.2,0.9-3.5,2.5-3.5c0.6,0,1,0.1,1.6,0.6c0.1-0.2,0.2-0.6,0.4-0.6c0,0,0.1,0,0.1,0L240.1,75.1z
		 M238.5,76.3c-0.5-0.3-0.8-0.4-1.1-0.4c-0.8,0-1.3,0.8-1.3,2.2c0,1.5,0.3,2.2,1.1,2.2c0.4,0,0.8-0.2,1.3-0.6V76.3z M246.8,78.1
		L246.8,78.1c0,0.3,0,0.5-0.2,0.5h-3.7c0.1,1.3,0.6,2,1.6,2c0.8,0,1.2-0.3,1.6-0.5c0,0,0,0,0.1,0c0,0,0.1,0,0.1,0.1l0.3,0.7
		c0,0.1,0,0.1,0,0.1c0,0.4-1.6,0.8-2.3,0.8c-1.8,0-2.9-1.3-2.9-3.4c0-2.1,1.1-3.5,2.8-3.5C245.9,74.8,246.8,76,246.8,78.1z
		 M245.4,77.6c0-1.2-0.4-1.8-1.2-1.8c-0.8,0-1.2,0.6-1.3,1.8H245.4z M251.8,74.8c-0.8,0-1.3,0.4-2,0.9c-0.2-0.6-0.3-0.9-0.5-0.9
		c0,0-0.1,0-0.1,0l-0.9,0.4c-0.1,0-0.1,0.1-0.1,0.1c0,0,0,0.1,0,0.1c0.2,0.4,0.3,0.8,0.3,1.3v4.6c0,0.2,0,0.2,0.2,0.2h1
		c0.2,0,0.2,0,0.2-0.2v-4.7c0.6-0.5,1-0.7,1.5-0.7c0.6,0,0.8,0.3,0.8,1.1v4.3c0,0.2,0,0.2,0.2,0.2h1c0.2,0,0.2,0,0.2-0.2v-4.5
		C253.5,75.3,253,74.8,251.8,74.8z M258.1,74.8c-1.8,0-2.9,1.4-2.9,3.6c0,2.1,1,3.3,2.7,3.3c0.5,0,2-0.4,2-0.8c0,0,0-0.1-0.1-0.2
		l-0.3-0.7c0-0.1-0.1-0.1-0.1-0.1c0,0-0.1,0-0.1,0.1c-0.4,0.3-0.8,0.5-1.3,0.5c-1,0-1.4-0.8-1.4-2.4c0-1.6,0.5-2.4,1.5-2.4
		c0.4,0,0.7,0.1,1.2,0.5c0,0,0.1,0.1,0.1,0.1c0,0,0.1,0,0.1-0.1l0.4-0.7c0,0,0-0.1,0-0.1C260.1,75.2,258.8,74.8,258.1,74.8z
		 M266.3,75.1l-1-0.3c0,0,0,0-0.1,0c-0.1,0-0.1,0-0.1,0.2l-1.1,4.5c-0.1,0.4-0.2,0.9-0.3,1.4c-0.1-0.5-0.2-1.1-0.4-1.7l-1.3-4.2
		c0-0.1-0.1-0.2-0.2-0.2c0,0-0.1,0-0.1,0l-1,0.2c-0.1,0-0.2,0.1-0.2,0.1c0,0,0,0.1,0,0.2l2.1,6c0.1,0.1,0.1,0.1,0.2,0.1h0.5
		l-0.2,0.7c-0.2,0.8-0.5,1.1-1.1,1.1c-0.3,0-0.7-0.1-1.1-0.4c0,0-0.1-0.1-0.1-0.1c0,0-0.1,0-0.1,0.1l-0.4,0.8c0,0,0,0,0,0.1
		c0,0.3,1.3,0.6,1.7,0.6c1.9,0,2.2-2.2,2.6-3.5l1.6-5.6c0,0,0-0.1,0-0.1C266.4,75.2,266.4,75.2,266.3,75.1z"/>
</g>
<g id="Слой_2">
</g>
<g id="Слой_3">
	<polyline fill="none" stroke="#000000" stroke-width="0.2835" stroke-miterlimit="10" points="72.8,-300.1 24.6,-286 65.6,-293.1 	
		"/>
	<line fill="none" stroke="#000000" stroke-width="0.2835" stroke-miterlimit="10" x1="72.8" y1="-271.8" x2="24.6" y2="-286"/>
</g>
</svg>
