<svg id="Слой_1" data-name="Слой 1" xmlns="http://www.w3.org/2000/svg" viewBox="0 0 491 171.17"><defs><style>.cls-1{fill:#d72615;}.cls-2{fill:#951406;}.cls-3{fill:#747474;}</style></defs><title>Монтажная область 1</title><path class="cls-1" d="M78.59.18v171l40.31-21.89V42.44l21.51,8v86.82l18.07-9.91V44Z"/><polygon class="cls-2" points="78.11 0.18 0.11 42.93 0.11 56.52 34.86 43.71 34.86 147.47 78.59 171.17 78.59 0.18 78.11 0.18"/><path d="M218.4,61.4h-8.6V36.09h-8.26V61.4H193V27.78H218.4Z"/><path d="M244.32,53.33V61.4H223.68V27.78h20.4v8.07H232.27v4.76h10.61v7.63H232.27v5.09Z"/><path d="M273.32,39.55c0,6.91-5.28,11.76-12,11.76h-4.47V61.4h-8.59V27.78h13.06C268,27.78,273.32,32.63,273.32,39.55Zm-8.59,0A3.37,3.37,0,0,0,261.32,36h-4.47v7.15h4.47A3.41,3.41,0,0,0,264.73,39.55Z"/><path d="M306,50.69A10.49,10.49,0,0,1,295.12,61.4H276.68V27.78h14.41c5.9,0,10.56,3.7,10.56,9.13a7.36,7.36,0,0,1-1.39,4.27A10.38,10.38,0,0,1,306,50.69ZM285.28,35.56v4.37h7.05a2.6,2.6,0,0,0,.92-2A2.2,2.2,0,0,0,291,35.56Zm12.1,14.75A3.07,3.07,0,0,0,294,47h-8.69v6.63h8.64A3.1,3.1,0,0,0,297.38,50.31Z"/><path d="M309.57,27.78h8.59V37.87h4.47c6.72,0,12,4.9,12,11.76s-5.28,11.77-12,11.77H309.57Zm13.06,25.46A3.42,3.42,0,0,0,326,49.63a3.37,3.37,0,0,0-3.41-3.55h-4.47v7.16Zm14.79-25.46H346V61.4h-8.55Z"/><path d="M368.87,44,358,61.4h-6.68V27.78h8.6V45.17l10.9-17.39h6.62V61.4h-8.54ZM357.1,18.47h15.51v6.72H357.1Z"/><path d="M218.25,109.41h-8.59V84.1H201.4v25.31h-8.6V75.8h25.45Z"/><path d="M222.23,92.6a17.63,17.63,0,1,1,17.63,17.53A17.4,17.4,0,0,1,222.23,92.6Zm26.7,0a9.08,9.08,0,1,0-9.07,9.13A8.81,8.81,0,0,0,248.93,92.6Z"/><path d="M260.16,92.6a17.09,17.09,0,0,1,17.53-17.52c8.31,0,15.32,5.66,16.57,13.63h-8.89c-.91-3.21-4-5.23-7.68-5.23-5.43,0-9,3.75-9,9.12s3.55,9.13,9,9.13c3.7,0,6.82-2,7.68-5.24h8.94c-1.25,7.93-8.26,13.64-16.62,13.64A17.09,17.09,0,0,1,260.16,92.6Z"/><path d="M317.54,84.1h-7.35v25.31h-8.54V84.1H294.3V75.8h23.24Z"/><path d="M336.75,104.56H326l-1.39,4.85h-9.32l11-33.61h10.28l10.94,33.61h-9.31Zm-2.07-7.39-3.31-11.63-3.31,11.63Z"/><path d="M379.14,98.7a10.49,10.49,0,0,1-10.85,10.71H349.85V75.8h14.41c5.9,0,10.56,3.69,10.56,9.12a7.36,7.36,0,0,1-1.39,4.27A10.38,10.38,0,0,1,379.14,98.7ZM358.45,83.58V88h7.05a2.64,2.64,0,0,0,.92-2,2.19,2.19,0,0,0-2.26-2.35Zm12.1,14.74A3.07,3.07,0,0,0,367.14,95h-8.69v6.63h8.64A3.1,3.1,0,0,0,370.55,98.32Z"/><path d="M425,101.1v15.23h-8.6v-6.92H382.74V75.8h8.59v25.3h6.3V75.8h8.59v25.3h6.29V75.8h8.6v25.3Z"/><path d="M446,92l-10.9,17.38h-6.67V75.8H437V93.18l10.9-17.38h6.63v33.61H446Z"/><path d="M478.14,109.41l-9.65-15.08v15.08h-8.6V75.8h8.6V89.91l9.17-14.11h9.6l-10.7,16.32,11.19,17.29Z"/><path class="cls-3" d="M194.7,140.17v9.75c0,.22-.1.32-.33.32h-1.83a.28.28,0,0,1-.32-.32V138.39c0-.18.07-.25.22-.25H201c.1,0,.2.05.2.22v11.56c0,.17,0,.32-.25.32h-1.91a.28.28,0,0,1-.32-.32v-9.75Z"/><path class="cls-3" d="M209.38,150.61c-3.22,0-5.11-2.36-5.11-6.4s2-6.44,5.23-6.44,5.11,2.35,5.11,6.39S212.63,150.61,209.38,150.61Zm.07-10.81c-1.68,0-2.5,1.36-2.5,4.31s.79,4.47,2.5,4.47,2.48-1.39,2.48-4.47S211.14,139.8,209.45,139.8Z"/><path class="cls-3" d="M220.89,140.17v.47c0,1.94-.13,3.6-.23,4.71-.14,1.74-.81,5.26-4.14,5.26-.27,0-.37-.05-.44-.3l-.33-1.24a.72.72,0,0,1,0-.19c0-.3.25-.3.35-.33l.25,0c1.66-.13,2.08-1.89,2.2-3.55.15-2.11.15-3.4.15-5.18v-1.22c0-.22,0-.44.37-.44h6.82c.1,0,.32,0,.32.35v11.43c0,.29-.17.32-.24.32h-2c-.17,0-.2-.13-.2-.25v-9.82Z"/><path class="cls-3" d="M239.46,149.92c0,.29-.17.32-.25.32h-1.9a.3.3,0,0,1-.33-.32v-5.51c0-.27,0-.87.1-2.53l-.07,0c-.52,1.11-.92,1.81-1.39,2.65l-3.13,5.58c-.07.12-.12.15-.32.15h-1.83c-.27,0-.32-.15-.32-.23v-11.6c0-.15,0-.17.19-.2l2.09-.44c.12,0,.19,0,.19.19v6c0,.72,0,1.66-.09,2.55h.09a26.88,26.88,0,0,1,1.37-2.65l3.12-5.45c.08-.13.08-.18.28-.23l1.81-.42a.56.56,0,0,1,.17,0c.2,0,.22.12.22.19Z"/><path class="cls-3" d="M250.4,139.92c-.05.2-.12.33-.37.33h-4.22v9.67a.28.28,0,0,1-.32.32h-1.88c-.23,0-.33-.1-.33-.32V138.44a.27.27,0,0,1,.28-.3h6.84c.15,0,.3,0,.3.25v.1Z"/><path class="cls-3" d="M257.82,150.61a4.58,4.58,0,0,1-2.73-.87v4.91c0,.25,0,.3-.3.37l-1.81.45a.51.51,0,0,1-.2,0c-.14,0-.19-.08-.19-.38V141.58a4.07,4.07,0,0,0-.43-2.18,2.06,2.06,0,0,1-.19-.54.25.25,0,0,1,.14-.23l1.62-.81a.4.4,0,0,1,.2-.08c.27,0,.64.82.81,1.41a4.88,4.88,0,0,1,3.33-1.38c2.67,0,4.09,2.1,4.09,6.17C262.16,148.25,260.62,150.61,257.82,150.61Zm-.32-10.76a3.79,3.79,0,0,0-2.41,1.07v6.91a4,4,0,0,0,2.23.75c1.69,0,2.26-1.19,2.26-4.52C259.58,141.09,259,139.85,257.5,139.85Z"/><path class="cls-3" d="M273.84,149.57a.18.18,0,0,1-.13.17l-1.51.75a.53.53,0,0,1-.25.07c-.32,0-.62-.69-.84-1.51a4.37,4.37,0,0,1-3.35,1.49,3.32,3.32,0,0,1-3.52-3.58c0-3.71,3.57-4.23,6.5-4.26v-.79c0-1.52-.5-2.06-2-2.06a7.08,7.08,0,0,0-2.85.72,1,1,0,0,1-.22.05.24.24,0,0,1-.23-.18l-.39-1.21a.63.63,0,0,1,0-.22c0-.8,3-1.22,4-1.22,2.73,0,4.09,1.12,4.09,3.75v4.85a5.55,5.55,0,0,0,.59,2.93A.81.81,0,0,1,273.84,149.57Zm-3.1-5.06c-1.56,0-4,.12-4,2.28a1.73,1.73,0,0,0,1.68,1.86,3.41,3.41,0,0,0,2.36-1.19Z"/><path class="cls-3" d="M282.72,155.45c-.2,0-.25-.1-.25-.28v-5.33a3.29,3.29,0,0,1-2.16.77c-3.67,0-4-4.19-4-6.42,0-2.43.62-6.42,3.82-6.42a3.2,3.2,0,0,1,2.33,1v-5.11c0-.17,0-.3.22-.35l1.94-.44a.68.68,0,0,0,.12,0c.18,0,.2.15.2.32v5.61a3.22,3.22,0,0,1,2.33-1c3.2,0,3.82,4,3.82,6.42,0,2.23-.32,6.42-4,6.42a3.29,3.29,0,0,1-2.16-.77v5.33c0,.25-.15.28-.2.28Zm-.25-14.71a1.94,1.94,0,0,0-1.66-.89c-1.86,0-1.91,2.65-1.91,4.51,0,1.71,0,4.19,2,4.19a2.22,2.22,0,0,0,1.54-.69Zm2.48,7.12a2.22,2.22,0,0,0,1.54.69c2,0,2-2.48,2-4.19,0-1.86,0-4.51-1.91-4.51a1.94,1.94,0,0,0-1.66.89Z"/><path class="cls-3" d="M303.58,149.92c0,.29-.18.32-.25.32h-1.91a.3.3,0,0,1-.32-.32v-5.51c0-.27,0-.87.1-2.53l-.08,0c-.52,1.11-.91,1.81-1.39,2.65l-3.12,5.58c-.07.12-.12.15-.32.15h-1.84c-.27,0-.32-.15-.32-.23v-11.6c0-.15.05-.17.2-.2l2.08-.44c.13,0,.2,0,.2.19v6c0,.72,0,1.66-.1,2.55h.1a27.75,27.75,0,0,1,1.36-2.65l3.13-5.45c.07-.13.07-.18.27-.23l1.81-.42a.62.62,0,0,1,.17,0c.2,0,.23.12.23.19Z"/><path class="cls-3" d="M313.6,150.24c-.25,0-.25-.18-.25-.32V145.4h-1.07c-.77,0-1.41.23-1.78,1.54l-.32,1.17a2.93,2.93,0,0,1-3.25,2.5c-.13,0-.32,0-.37-.2l-.45-1.56s0,0,0-.07c0-.18.25-.23.35-.25l.4-.08c.44-.1.74-.1,1-1.09l.27-.92c.49-1.63.92-1.68,1.41-1.93v0a2.63,2.63,0,0,1-2.4-2.88c0-3,3-3.44,4.24-3.44h4.26c.1,0,.2.07.2.25V150a.24.24,0,0,1-.25.25Zm-.25-10.17h-1.79a1.71,1.71,0,0,0-1.9,1.64c0,1.44,1.28,1.76,2.08,1.76h1.61Z"/><path class="cls-3" d="M330.81,154.48h-1.64c-.37,0-.39,0-.39-.42V133.63c0-.35,0-.4.39-.4h1.64c.37,0,.45.05.45.4v20.43C331.26,154.43,331.18,154.48,330.81,154.48Z"/><path class="cls-3" d="M351.92,150.46a.39.39,0,0,1-.23,0c-.37,0-.59-.64-.76-1.36a5.56,5.56,0,0,1-3.58,1.46c-2.48,0-4-2.33-4-6.25,0-4.26,1.78-6.59,4.53-6.59a4.89,4.89,0,0,1,2.58.77v-5.46c0-.25.05-.35.28-.4l1.76-.37a1.48,1.48,0,0,1,.24-.05c.15,0,.2.1.2.37v14.11a4.09,4.09,0,0,0,.45,2.41c.07.15.2.27.2.39s0,.13-.15.18Zm-1.42-10a4.2,4.2,0,0,0-2.15-.62c-1.71,0-2.38,1.19-2.38,4.24s.59,4.44,2.1,4.44a3.41,3.41,0,0,0,2.43-1.14Z"/><path class="cls-3" d="M359.71,150.24H357.9c-.35,0-.35-.05-.35-.37v-9.8h-1.91c-.32,0-.37,0-.37-.37v-1.19c0-.35.05-.37.37-.37h4c.3,0,.35.05.35.37v11.38C360,150.19,360,150.24,359.71,150.24Zm-1-14.33a1.76,1.76,0,1,1,1.77-1.76A1.76,1.76,0,0,1,358.66,135.91Z"/><path class="cls-3" d="M372.8,141.66v3.77c0,2.06.1,3.47.1,5.25,0,3.13-1.34,4.77-4.49,4.77-1.21,0-4.61-.67-4.61-1.29a1.08,1.08,0,0,1,.05-.25l.47-1.37c.05-.14.12-.19.22-.19a1,1,0,0,1,.33.1,8.64,8.64,0,0,0,3.37.86c1.63,0,2.25-.64,2.25-2.38a14.49,14.49,0,0,0-.1-2.08,4.93,4.93,0,0,1-3.14,1.14c-2.43,0-4-2.21-4-5.73,0-4.09,1.71-6.49,4.61-6.49a4.29,4.29,0,0,1,2.95,1.09c.2-.45.42-1.17.82-1.17a.77.77,0,0,1,.17.05l1.56.7c.13.05.2.12.2.22a.4.4,0,0,1-.07.2A4.93,4.93,0,0,0,372.8,141.66Zm-2.45-1.09a3.71,3.71,0,0,0-2.06-.72c-1.57,0-2.43,1.44-2.43,4.07s.64,4,2,4a3.94,3.94,0,0,0,2.46-1Z"/><path class="cls-3" d="M379.4,150.24h-1.81c-.35,0-.35-.05-.35-.37v-9.8h-1.91c-.32,0-.37,0-.37-.37v-1.19c0-.35.05-.37.37-.37h4c.3,0,.35.05.35.37v11.38C379.72,150.19,379.7,150.24,379.4,150.24Zm-1-14.33a1.76,1.76,0,0,1,0-3.52,1.77,1.77,0,0,1,1.76,1.76A1.74,1.74,0,0,1,378.36,135.91Z"/><path class="cls-3" d="M390.71,149.64c0,.52-2.43.92-3.25.92-2.58,0-3.17-1.51-3.17-3.74v-6.75h-1.71c-.33,0-.4-.07-.4-.37v-1.19c0-.3.07-.37.4-.37h1.71v-3.25c0-.25.07-.32.32-.37l1.66-.32a1.33,1.33,0,0,1,.3,0c.12,0,.2.07.2.34v3.65H390c.25,0,.32.07.32.2a.79.79,0,0,1-.05.24l-.27,1.17c-.05.25-.13.32-.37.32h-2.9v6.5c0,1.46.22,1.81,1.21,1.81a4.47,4.47,0,0,0,1.89-.5.42.42,0,0,1,.22,0c.15,0,.17.13.22.3l.35,1.27A1.29,1.29,0,0,1,390.71,149.64Z"/><path class="cls-3" d="M402,149.57a.18.18,0,0,1-.12.17l-1.51.75a.56.56,0,0,1-.25.07c-.32,0-.62-.69-.85-1.51a4.36,4.36,0,0,1-3.34,1.49A3.32,3.32,0,0,1,392.4,147c0-3.71,3.57-4.23,6.49-4.26v-.79c0-1.52-.49-2.06-2-2.06a7.12,7.12,0,0,0-2.85.72.87.87,0,0,1-.22.05c-.1,0-.17-.05-.22-.18l-.4-1.21a1,1,0,0,1-.05-.22c0-.8,3-1.22,4-1.22,2.73,0,4.09,1.12,4.09,3.75v4.85a5.45,5.45,0,0,0,.6,2.93A1.17,1.17,0,0,1,402,149.57Zm-3.1-5.06c-1.56,0-4,.12-4,2.28a1.73,1.73,0,0,0,1.69,1.86,3.39,3.39,0,0,0,2.35-1.19Z"/><path class="cls-3" d="M410.45,149.94c0,.35-1.66.62-2.35.62-3.1,0-2.86-2.33-2.86-5.33V133.08a.41.41,0,0,1,.33-.4l1.86-.39a.38.38,0,0,1,.17,0c.17,0,.2.13.2.37v14.66c0,.79.27,1.06.84,1.06a2.2,2.2,0,0,0,.89-.19.49.49,0,0,1,.23-.08c.07,0,.15,0,.2.17l.42,1.44A2,2,0,0,1,410.45,149.94Z"/><path class="cls-3" d="M417.89,145.08h-6.22c-.37,0-.45,0-.45-.4V143.1c0-.35.08-.4.45-.4h6.22c.37,0,.4.05.4.4v1.58C418.29,145.06,418.26,145.08,417.89,145.08Z"/><path class="cls-3" d="M429.89,149.57a.17.17,0,0,1-.12.17l-1.51.75a.53.53,0,0,1-.25.07c-.32,0-.62-.69-.84-1.51a4.4,4.4,0,0,1-3.35,1.49A3.32,3.32,0,0,1,420.3,147c0-3.71,3.57-4.23,6.5-4.26v-.79c0-1.52-.5-2.06-2-2.06a7,7,0,0,0-2.85.72,1,1,0,0,1-.23.05c-.1,0-.17-.05-.22-.18l-.4-1.21a1,1,0,0,1-.05-.22c0-.8,3-1.22,4-1.22,2.73,0,4.1,1.12,4.1,3.75v4.85a5.45,5.45,0,0,0,.59,2.93A.78.78,0,0,1,429.89,149.57Zm-3.09-5.06c-1.57,0-4.05.12-4.05,2.28a1.73,1.73,0,0,0,1.69,1.86,3.43,3.43,0,0,0,2.36-1.19Z"/><path class="cls-3" d="M441.9,141.66v3.77c0,2.06.1,3.47.1,5.25,0,3.13-1.34,4.77-4.49,4.77-1.21,0-4.61-.67-4.61-1.29a1.08,1.08,0,0,1,.05-.25l.47-1.37c.05-.14.12-.19.22-.19a1,1,0,0,1,.33.1,8.64,8.64,0,0,0,3.37.86c1.63,0,2.25-.64,2.25-2.38a14.49,14.49,0,0,0-.1-2.08,4.93,4.93,0,0,1-3.14,1.14c-2.43,0-4-2.21-4-5.73,0-4.09,1.71-6.49,4.61-6.49a4.29,4.29,0,0,1,2.95,1.09c.2-.45.42-1.17.82-1.17a.77.77,0,0,1,.17.05l1.56.7c.13.05.2.12.2.22a.4.4,0,0,1-.07.2A4.93,4.93,0,0,0,441.9,141.66Zm-2.46-1.09a3.66,3.66,0,0,0-2.05-.72c-1.57,0-2.43,1.44-2.43,4.07s.64,4,2,4a3.9,3.9,0,0,0,2.45-1Z"/><path class="cls-3" d="M454.85,144.09c0,.47,0,.74-.4.74h-6.89c.1,2.41,1.09,3.65,3,3.65a6.21,6.21,0,0,0,3-.9.33.33,0,0,1,.13,0c.07,0,.14.07.19.19l.57,1.24a.59.59,0,0,1,.08.25c0,.72-3,1.39-4.24,1.39-3.37,0-5.33-2.36-5.33-6.37s2-6.47,5.16-6.47,4.71,2.18,4.71,6.15ZM450,139.65c-1.49,0-2.23,1-2.41,3.27h4.61C452.14,140.72,451.45,139.65,450,139.65Z"/><path class="cls-3" d="M466.85,150.24h-1.78c-.33,0-.33-.05-.33-.35v-8c0-1.46-.47-2.08-1.56-2.08a3.81,3.81,0,0,0-2.7,1.29v8.75c0,.3-.05.35-.35.35h-1.78c-.3,0-.35-.05-.35-.35v-8.45a5.25,5.25,0,0,0-.47-2.46.56.56,0,0,1-.08-.25c0-.07.05-.12.18-.19l1.63-.75a.39.39,0,0,1,.15,0c.25,0,.5.54.87,1.68,1.22-.94,2.13-1.66,3.67-1.66,2.31,0,3.27,1,3.27,3.79v8.31C467.22,150.19,467.15,150.24,466.85,150.24Z"/><path class="cls-3" d="M478.36,140.79a.2.2,0,0,1-.17.1.33.33,0,0,1-.23-.1,3.35,3.35,0,0,0-2.28-1c-1.86,0-2.73,1.41-2.73,4.36s.85,4.42,2.63,4.42a3.66,3.66,0,0,0,2.43-1,.51.51,0,0,1,.25-.12c.08,0,.13.08.17.17l.5,1.22a1,1,0,0,1,.1.3c0,.77-2.73,1.46-3.74,1.46-3.18,0-5-2.26-5-6.15,0-4.14,2.05-6.69,5.38-6.69,1.19,0,3.57.72,3.57,1.53a.44.44,0,0,1-.05.15Z"/><path class="cls-3" d="M488.08,149.05c-.69,2.48-1.29,6.54-4.73,6.54-.87,0-3.23-.57-3.23-1.19a.18.18,0,0,1,0-.12l.69-1.41c.05-.1.1-.13.15-.13s.17.08.22.1a4.05,4.05,0,0,0,2,.7c1,0,1.51-.6,2-2l.39-1.29h-1c-.27,0-.32,0-.42-.27l-3.87-11.09a.79.79,0,0,1-.07-.3c0-.12.07-.17.29-.22l1.86-.37c.08,0,.13,0,.18,0s.27.08.35.3l2.4,7.74c.32,1,.52,2,.74,3.05.18-.92.28-1.71.48-2.51l2-8.28c.05-.25.12-.32.25-.32l.12,0,1.91.48a.18.18,0,0,1,.17.19.39.39,0,0,1,0,.15Z"/></svg>